<svg width="490" height="869" viewBox="0 0 490 869" fill="none" xmlns="http://www.w3.org/2000/svg">
<path d="M578.497 28.2906H590.387C635.319 28.301 678.406 45.24 710.173 75.3824C741.941 105.525 759.787 146.402 759.787 189.025V495.663H409.005V189.025C409.005 167.913 413.389 147.008 421.908 127.503C430.426 107.999 442.912 90.2775 458.651 75.3513C474.391 60.4251 493.076 48.5865 513.639 40.5117C534.203 32.437 556.242 28.2842 578.497 28.2906Z" fill="#FFB7D5"/>
<path d="M648.085 311.08V500.437H492.431V311.08H648.085ZM652.209 307.167H488.306V504.35H652.209V307.167Z" fill="#CA7358"/>
<path d="M652.209 307.157H488.306V347.92H652.209V307.157Z" fill="#CA7358"/>
<path d="M487.43 208.687V501.386H393.743V208.687H487.43ZM491.555 204.774H389.618V505.299H491.555V204.774Z" fill="#CA7358"/>
<path d="M491.555 197.193H389.618V212.835H491.555V197.193Z" fill="#CA7358"/>
<path d="M511.54 144.104C525.892 144.104 537.527 133.067 537.527 119.453C537.527 105.838 525.892 94.8009 511.54 94.8009C497.188 94.8009 485.553 105.838 485.553 119.453C485.553 133.067 497.188 144.104 511.54 144.104Z" fill="#F5EBDD"/>
<path d="M804.758 495.82H364.033V524.257H804.758V495.82Z" fill="#F5EBDD"/>
<path d="M591.357 0H577.466C467.888 0 379.059 84.2654 379.059 188.213V524.257H789.806V188.213C789.775 84.2654 700.935 0 591.357 0ZM569.413 495.82H409.005V258.812H569.413V495.82ZM569.413 230.375H409.005V189.181C409.007 148.036 425.641 108.457 455.483 78.5966C485.324 48.7363 526.1 30.8682 569.413 28.6721V230.375ZM759.787 495.82H599.39V258.812H759.787V495.82ZM759.787 230.375H599.39V28.6721C642.702 30.8682 683.477 48.7367 713.316 78.5973C743.156 108.458 759.788 148.036 759.787 189.181V230.375Z" fill="#F5EBDD"/>
<path d="M40.837 898.727C62.912 898.727 80.8073 881.751 80.8073 860.81C80.8073 839.869 62.912 822.894 40.837 822.894C18.762 822.894 0.866699 839.869 0.866699 860.81C0.866699 881.751 18.762 898.727 40.837 898.727Z" fill="#FFB7D5"/>
<path d="M161.655 807.046V823.158H308.564V807.046H161.655Z" fill="#A15842"/>
<path d="M332.767 890.666L296.375 683.524H318.629C321.014 683.524 323.301 682.625 324.987 681.026C326.674 679.426 327.621 677.256 327.621 674.994C327.621 672.731 326.674 670.562 324.987 668.962C323.301 667.362 321.014 666.464 318.629 666.464H151.766C149.381 666.464 147.094 667.362 145.408 668.962C143.721 670.562 142.774 672.731 142.774 674.994C142.774 677.256 143.721 679.426 145.408 681.026C147.094 682.625 149.381 683.524 151.766 683.524H173.845L137.453 890.666C137.273 891.691 137.331 892.742 137.623 893.744C137.914 894.746 138.432 895.676 139.141 896.469C139.849 897.262 140.731 897.899 141.725 898.337C142.72 898.774 143.802 899 144.898 899C146.621 899.002 148.292 898.443 149.634 897.418C150.975 896.393 151.906 894.963 152.272 893.366L200.492 683.524H269.728L317.938 893.366C318.307 894.963 319.241 896.392 320.583 897.417C321.926 898.442 323.598 899 325.322 899C326.418 899 327.5 898.774 328.495 898.337C329.489 897.899 330.371 897.262 331.08 896.469C331.788 895.676 332.306 894.746 332.597 893.744C332.889 892.742 332.947 891.691 332.767 890.666Z" fill="#FFBE21"/>
<path d="M318.629 683.524C321.014 683.524 323.301 682.625 324.987 681.026C326.674 679.426 327.621 677.256 327.621 674.994C327.621 672.731 326.674 670.562 324.987 668.962C323.301 667.362 321.014 666.464 318.629 666.464H151.766C149.381 666.464 147.094 667.362 145.408 668.962C143.721 670.562 142.774 672.731 142.774 674.994C142.774 677.256 143.721 679.426 145.408 681.026C147.094 682.625 149.381 683.524 151.766 683.524H173.845V683.788H200.471L200.533 683.524H269.769L269.831 683.788H296.458V683.524H318.629Z" fill="#A15842"/>
<path d="M328.518 806.772H434.734C436.054 785.378 440.767 757 444.675 718.662C448.15 684.669 451.141 656.133 450.945 632.577C450.615 593.311 344.729 640.834 344.729 640.834C344.729 649.413 346.554 657.65 346.606 665.632C346.729 686.371 335.654 704.018 327.745 729.032C315.751 766.958 325.744 806.772 325.744 806.772H328.518Z" fill="#4856DF"/>
<path d="M440.396 888.299H347.41C346.119 888.689 345.018 889.503 344.305 890.596C343.591 891.688 343.313 892.986 343.519 894.256C343.726 895.526 344.404 896.684 345.431 897.522C346.458 898.359 347.767 898.821 349.122 898.824L485.955 899C487.162 886.381 479.603 876.883 458.277 862.806C446.109 872.813 440.396 888.299 440.396 888.299Z" fill="#3EC1F3"/>
<path d="M453.482 859.744C449.065 857.035 445.25 853.533 442.252 849.433C435.033 839.387 433.507 825.858 434.693 806.772H342.646C342.823 821.042 343.908 835.288 345.894 849.433C348.245 865.447 351.421 876.462 353.968 888.045H349.132C348.548 888.044 347.966 888.13 347.41 888.299H440.395C440.395 888.299 446.108 872.813 458.277 862.865C456.751 861.841 455.152 860.801 453.482 859.744Z" fill="#A15842"/>
<path d="M435.807 789.633C430.114 778.884 426.234 767.354 424.308 755.464C417.575 711.081 421.565 688.327 402.58 668.4H347.028" stroke="#30242A" stroke-width="4" stroke-linecap="round" stroke-linejoin="round"/>
<path d="M470.446 810.558L470.549 810.793L552.552 774.363C546.169 756.246 539.496 732.142 528.535 700.594C518.264 671.071 511.468 649.012 505.033 631.941C496.034 638.091 484.936 640.827 473.92 639.613C462.903 638.398 452.762 633.322 445.489 625.379C438.215 617.437 434.334 607.202 434.607 596.684C434.88 586.166 439.288 576.125 446.965 568.532C403.189 549.769 247.711 537.532 247.711 537.532L159.758 525.206C155.117 532.484 151.168 544.017 149.023 557.488H179.753V588.664C179.737 594.968 177.087 601.009 172.384 605.463C167.681 609.917 161.309 612.42 154.664 612.426H152.911C152.498 612.426 152.086 612.426 151.683 612.426C160.078 641.773 181.671 666.493 225.746 666.493H403.633C422.617 686.4 418.627 709.154 425.36 753.556C430.867 789.878 456.968 816.652 456.968 816.652L470.446 810.558Z" fill="#4856DF"/>
<path d="M596.172 820.859C587.654 819.313 580.972 816.623 575.455 812.554C565.287 805.041 559.058 792.813 552.551 774.402L470.548 810.832C477.499 825.985 487.254 841.92 496.546 855.831C504.661 867.941 512.406 878.497 517.613 885.569L514.654 886.929C514.318 887.085 513.997 887.268 513.695 887.477L595.368 852.339C593.433 841.898 593.707 831.198 596.172 820.859Z" fill="#A15842"/>
<path d="M479.067 639.914C488.392 639.92 497.48 637.129 505.033 631.942C492.236 597.821 481.14 583.607 447.584 568.796L446.965 568.532C440.932 574.499 436.882 582.016 435.317 590.149C433.751 598.281 434.74 606.671 438.161 614.275C441.581 621.879 447.283 628.361 454.555 632.916C461.828 637.471 470.352 639.898 479.067 639.895V639.914Z" fill="#3EC1F3"/>
<path d="M154.664 612.426C161.322 612.426 167.707 609.917 172.416 605.452C177.125 600.987 179.771 594.931 179.774 588.615V557.439H149.044C146.332 574.353 146.486 594.25 151.684 612.396C152.086 612.396 152.498 612.396 152.911 612.396L154.664 612.426Z" fill="#3EC1F3"/>
<path d="M402.117 668.831H432.094" stroke="#30242A" stroke-width="4" stroke-linecap="round" stroke-linejoin="round"/>
<path d="M531.061 367.358C531.061 367.358 477.097 308.585 413.336 287.269" stroke="#30242A" stroke-width="4" stroke-linecap="round" stroke-linejoin="round"/>
<path d="M361.796 310.229C359.836 305.738 366.374 298.695 377.264 292.747C362.518 289.265 352.04 282.779 353.092 277.33C354.144 271.882 366.354 269.319 381.451 271.001C373.51 261.806 370.015 253.021 373.521 249.48C377.986 244.951 392.155 250.664 405.159 262.197C416.502 272.273 423.205 283.484 421.782 289.187C420.988 294.997 410.542 303.234 396.187 308.869C379.677 315.364 364.302 315.971 361.796 310.229Z" fill="#4756DF"/>
<path d="M422.318 307.44C432.718 307.44 441.148 299.443 441.148 289.578C441.148 279.713 432.718 271.715 422.318 271.715C411.918 271.715 403.488 279.713 403.488 289.578C403.488 299.443 411.918 307.44 422.318 307.44Z" fill="#30242A"/>
<path d="M461.993 312.583C467.167 310.761 464.815 292.561 456.741 271.932C448.666 251.303 437.927 236.057 432.753 237.88C427.579 239.702 429.931 257.902 438.005 278.531C446.08 299.16 456.819 314.406 461.993 312.583Z" fill="#30242A"/>
<path d="M461.072 316.166C461.072 316.166 469.074 337.022 465.073 358.827" stroke="#30242A" stroke-width="4" stroke-linecap="round" stroke-linejoin="round"/>
<path d="M315.143 233.094C298.086 251.299 279.958 255.32 279.958 255.32C268.232 243.19 246.958 243.19 243.71 260.377C240.173 279.424 265.005 284.667 265.005 284.667C265.005 284.667 271.264 309.24 261.664 321.38C253.187 332.141 242.297 333.912 219.981 336.279C249.062 382.892 278.761 379.214 288.651 379.214C312.369 379.214 319.051 353.105 320.918 339.644C315.517 337.858 310.007 336.384 304.418 335.232L301.221 317.037C301.221 317.037 316.143 322.085 328.941 315.012C341.738 307.939 344.935 294.782 340.666 274.562C338.139 262.578 338.232 247.758 336.066 234.513C327.621 235.873 315.143 233.094 315.143 233.094Z" fill="#A15842"/>
<path d="M492.555 334.655C488.028 317.467 452.585 308.145 452.585 308.145C452.585 308.145 454.709 269.563 445.583 268.331C438.591 267.352 431.589 283.503 425.598 314.787C418.895 349.749 422.597 414.323 422.597 414.323C422.597 414.323 415.182 407.935 404.664 399.043C403.613 401.058 402 402.762 400 403.969C398 405.177 395.69 405.841 393.32 405.89C394.816 407.689 395.753 409.847 396.026 412.123C396.298 414.399 395.896 416.702 394.864 418.773C393.832 420.844 392.211 422.6 390.184 423.845C388.157 425.089 385.804 425.772 383.39 425.817C384.885 427.615 385.822 429.774 386.095 432.05C386.368 434.326 385.965 436.629 384.933 438.7C383.901 440.77 382.281 442.527 380.253 443.771C378.226 445.016 375.873 445.699 373.459 445.744C375.028 447.632 375.981 449.914 376.198 452.31C376.415 454.705 375.888 457.108 374.681 459.223C373.475 461.337 371.641 463.07 369.408 464.207C367.175 465.344 364.64 465.836 362.115 465.622C384.008 479.141 413.769 494.91 433.6 494.91C537.527 494.871 495.556 346.032 492.555 334.655Z" fill="#A15842"/>
<path d="M374.964 458.588C375.995 456.517 376.397 454.215 376.126 451.939C375.855 449.664 374.92 447.505 373.428 445.705C375.842 445.66 378.195 444.977 380.222 443.732C382.249 442.488 383.87 440.731 384.902 438.661C385.934 436.59 386.337 434.287 386.064 432.011C385.791 429.735 384.854 427.576 383.358 425.778C385.773 425.733 388.126 425.05 390.153 423.806C392.18 422.561 393.801 420.805 394.833 418.734C395.865 416.663 396.267 414.36 395.994 412.084C395.722 409.808 394.785 407.65 393.289 405.851C395.659 405.802 397.969 405.138 399.969 403.93C401.969 402.723 403.582 401.019 404.633 399.004C386.504 383.685 359.166 360.97 344.615 350.767C337.572 345.827 328.6 342.168 320.897 339.644C319.082 353.144 312.441 379.214 288.723 379.214C278.875 379.214 249.134 382.892 220.053 336.279L210.711 337.257C178.536 340.652 163.893 357.076 155.272 376.7C149.94 388.84 145.671 411.085 145.671 411.085C142.363 431.48 140.661 452.079 140.577 472.714L182.414 509.447L294.735 512.078C303.727 499.498 320.227 476.265 325.672 467.353C332.663 455.976 333.664 446.497 333.664 446.497C333.664 446.497 345.667 455.399 362.115 465.563C364.751 465.782 367.395 465.232 369.691 463.985C371.988 462.738 373.828 460.855 374.964 458.588Z" fill="#FFBE21"/>
<path d="M326.878 210.84C314.091 195.677 278.906 185.562 251.186 204.775C223.467 223.987 225.602 255.34 226.664 267.48C226.664 267.48 196.82 258.372 175.494 279.61C169.322 285.681 164.828 293.106 162.41 301.222C159.992 309.339 159.726 317.897 161.635 326.135C161.635 326.135 122.366 325.088 114.724 359.512C110.383 379.077 118.488 392.097 127.481 400.158C132.755 404.853 138.916 408.56 145.64 411.085C145.64 411.085 149.91 388.84 155.241 376.7C163.862 357.076 178.506 340.652 210.68 337.257L220.023 336.279C242.338 333.912 253.228 332.112 261.705 321.381C271.295 309.241 265.005 284.667 265.005 284.667C265.005 284.667 240.142 279.424 243.679 260.397C246.886 243.21 268.202 243.21 279.927 255.34C279.927 255.34 298.056 251.3 315.112 233.095C315.112 233.095 327.59 235.873 336.097 234.513C334.643 225.396 332.086 217.032 326.878 210.84Z" fill="#30242A"/>
<path d="M494.772 348.164C491.751 346.844 489.946 343.518 490.462 337.159C490.462 337.159 484.212 344.594 477.561 341.287C470.91 337.981 473.57 330.859 473.57 330.859C473.57 330.859 467.568 334.655 462.577 329.881C458.05 325.587 461.546 318.504 461.546 318.504C461.546 318.504 454.905 321.077 452.554 316.606C449.594 311.011 453.193 305.151 457.091 300.661" stroke="#30242A" stroke-width="8" stroke-linecap="round" stroke-linejoin="round"/>
<path d="M159.737 326.956C160.867 332.025 162.904 336.872 165.76 341.288" stroke="black" stroke-width="4" stroke-miterlimit="10" stroke-linecap="round"/>
<path d="M420.596 415.546L423.102 445.098" stroke="#30242A" stroke-width="4" stroke-linecap="round" stroke-linejoin="round"/>
<path d="M330.158 413.795C336.685 424.946 336.603 438.329 335.757 446.262" stroke="#30242A" stroke-width="4" stroke-linecap="round" stroke-linejoin="round"/>
<path d="M271.192 445.098L239.214 446.047" stroke="#30242A" stroke-width="4" stroke-linecap="round" stroke-linejoin="round"/>
<path d="M300.675 318.905C296.206 317.241 291.846 315.324 287.62 313.163" stroke="#30242A" stroke-width="4" stroke-linecap="round" stroke-linejoin="round"/>
<path d="M308.667 346.981L306.924 336.504" stroke="#30242A" stroke-width="4" stroke-linecap="round" stroke-linejoin="round"/>
<path d="M224.509 267.861L226.726 285.352" stroke="black" stroke-width="4" stroke-miterlimit="10" stroke-linecap="round"/>
<path d="M330.158 288.678C327.9 290.067 320.413 290.527 316.824 284.335" stroke="#30242A" stroke-width="4" stroke-linecap="round" stroke-linejoin="round"/>
<path d="M270.192 268.761L260.199 264.027" stroke="#30242A" stroke-width="4" stroke-linecap="round" stroke-linejoin="round"/>
<path d="M316.329 264.564C314.731 266.628 307.192 270.629 301.52 266.061" stroke="#30242A" stroke-width="4" stroke-linecap="round" stroke-linejoin="round"/>
<path d="M340.614 261.581C339.42 261.821 338.189 261.836 336.989 261.625C335.789 261.413 334.645 260.98 333.622 260.348" stroke="#30242A" stroke-width="4" stroke-linecap="round" stroke-linejoin="round"/>
<path d="M327.095 265.102C328.24 267.558 329.343 270.268 329.106 271.305C328.754 272.566 327.961 273.676 326.858 274.454" stroke="#30242A" stroke-width="4" stroke-linecap="round" stroke-linejoin="round"/>
<path d="M264.716 280.216L251.073 292.425C250.334 293.085 249.786 293.915 249.482 294.833C249.177 295.752 249.126 296.729 249.333 297.672C249.539 298.615 249.998 299.492 250.663 300.219C251.329 300.946 252.18 301.499 253.135 301.826L269.264 307.255C270.222 307.576 271.252 307.659 272.254 307.495C273.256 307.331 274.197 306.926 274.986 306.318C275.776 305.711 276.388 304.921 276.763 304.025C277.139 303.128 277.266 302.156 277.132 301.199L274.647 283.591C274.501 282.568 274.062 281.602 273.377 280.799C272.692 279.996 271.788 279.387 270.763 279.039C269.738 278.69 268.632 278.616 267.566 278.824C266.499 279.031 265.513 279.513 264.716 280.216Z" fill="#F4E6D8"/>
<path d="M460.577 283.464C460.577 283.464 467.568 279.668 473.57 281.566C482.851 284.501 481.49 292.698 481.49 292.698C481.49 292.698 494.504 288.247 497.03 301.297C497.03 301.297 508.766 303.792 506.126 314.924C506.126 314.924 515.623 315.403 513.736 327.211C511.849 339.018 503.548 348.83 498.556 348.83C493.4 348.83 489.76 345.826 490.461 337.091C490.461 337.091 484.212 344.525 477.561 341.219C470.909 337.913 473.57 330.791 473.57 330.791C473.57 330.791 467.568 334.587 462.577 329.813C458.05 325.518 461.546 318.436 461.546 318.436C461.546 318.436 454.905 321.009 452.554 316.538C447.552 307.059 461.309 296.866 463.546 293.794L460.577 283.464Z" fill="#A15842"/>
<path d="M457.607 321.889C464.475 315.912 476.169 304.633 481.717 292.796" stroke="#30242A" stroke-width="4" stroke-linecap="round" stroke-linejoin="round"/>
<path d="M470.219 335.536C481.632 326.328 490.948 315.011 497.598 302.275" stroke="#30242A" stroke-width="4" stroke-linecap="round" stroke-linejoin="round"/>
<path d="M487.884 342.559C490.977 338.979 501.795 326.115 507.157 315.932" stroke="#30242A" stroke-width="4" stroke-linecap="round" stroke-linejoin="round"/>
<path d="M485.945 560.286H312.864L352.205 442.379C353.369 438.907 355.667 435.878 358.767 433.728C361.867 431.579 365.608 430.422 369.448 430.425H515.706C518.548 430.424 521.35 431.058 523.885 432.277C526.42 433.495 528.616 435.263 530.296 437.438C531.975 439.613 533.091 442.132 533.552 444.792C534.013 447.452 533.806 450.178 532.948 452.748L500.413 550.249C499.435 553.161 497.507 555.703 494.906 557.507C492.305 559.312 489.167 560.285 485.945 560.286Z" fill="#30242A"/>
<path d="M212.412 547.011C211.902 548.538 211.778 550.159 212.051 551.74C212.324 553.321 212.986 554.819 213.983 556.112C214.981 557.405 216.286 558.457 217.792 559.182C219.298 559.907 220.963 560.285 222.652 560.286H485.945C489.165 560.279 492.298 559.301 494.894 557.493C497.489 555.685 499.411 553.141 500.382 550.229L501.413 547.011H212.412Z" fill="#30242A"/>
<path d="M459.432 485.206C455.411 479.982 437.127 493.775 435.786 494.92C435.085 493.775 425.577 479.982 418.596 485.206C412.542 489.735 425.814 509.955 429.393 515.111C429.541 515.268 429.722 515.393 429.924 515.479C430.127 515.565 430.346 515.609 430.568 515.609C430.79 515.609 431.01 515.565 431.212 515.479C431.415 515.393 431.596 515.268 431.744 515.111C438.251 509.907 462.928 489.686 459.432 485.206Z" fill="#FFBE21"/>
<path d="M442.726 481.514C444.179 477.088 444.118 473.134 442.59 472.683C441.062 472.231 438.646 475.453 437.193 479.879C435.739 484.305 435.8 488.258 437.328 488.71C438.856 489.161 441.273 485.94 442.726 481.514Z" fill="#FFBE21"/>
<path d="M113.239 453.384C115.486 454.205 117.929 454.419 120.295 454.001C122.662 453.583 124.861 452.55 126.645 451.017C126.857 453.301 127.737 455.484 129.188 457.318C130.638 459.153 132.601 460.566 134.853 461.398C137.105 462.23 139.558 462.449 141.935 462.028C144.311 461.608 146.516 460.565 148.301 459.018C148.518 461.3 149.402 463.479 150.854 465.31C152.305 467.141 154.267 468.551 156.518 469.381C158.768 470.212 161.219 470.43 163.593 470.011C165.967 469.593 168.171 468.553 169.957 467.011C170.122 468.812 170.704 470.556 171.662 472.119C172.62 473.683 173.929 475.026 175.497 476.054C177.065 477.082 178.853 477.768 180.733 478.065C182.613 478.362 184.539 478.262 186.374 477.771L201.966 438.045C207.971 422.795 210.818 406.59 210.35 390.317L208.772 337.492C208.772 337.492 172.792 340.329 151.807 364.981C141.041 377.629 119.911 411.046 106.371 447.377C107.794 450.12 110.243 452.261 113.239 453.384Z" fill="#FFBE21"/>
<path d="M178.196 477.38C175.938 476.555 173.968 475.146 172.51 473.313C171.052 471.481 170.164 469.297 169.946 467.011C168.161 468.553 165.957 469.592 163.583 470.011C161.208 470.43 158.758 470.212 156.507 469.381C154.257 468.551 152.295 467.141 150.843 465.31C149.392 463.479 148.508 461.3 148.291 459.018C146.506 460.565 144.301 461.608 141.925 462.028C139.548 462.449 137.095 462.23 134.843 461.398C132.59 460.566 130.628 459.152 129.178 457.318C127.727 455.483 126.847 453.301 126.635 451.016C125.15 452.299 123.372 453.237 121.441 453.757C119.509 454.277 117.477 454.364 115.504 454.013C113.53 453.661 111.67 452.879 110.069 451.73C108.469 450.58 107.171 449.093 106.279 447.387C94.5432 478.877 88.5002 512.567 99.8643 536.818C124.325 589.046 197.738 570.665 215.063 565.832C232.387 561 266.046 544.556 288.475 547.461C310.905 550.366 336.386 561 340.47 547.461C340.47 547.461 354.195 547.128 349.875 534.744C349.875 534.744 356.774 533.932 357.794 529.099C359.857 519.425 335.365 510.728 335.365 510.728C335.365 510.728 354.742 513.663 358.815 509.75C363.971 504.859 358.96 496.964 327.311 489.686C292.549 481.704 246.67 486.536 178.361 498.138L186.353 477.761C183.663 478.478 180.799 478.345 178.196 477.38Z" fill="#A15842"/>
<path d="M202.235 432.772L179.414 495.966" stroke="#30242A" stroke-width="4" stroke-linecap="round" stroke-linejoin="round"/>
<path d="M341.522 511.422C330.447 507.431 312.008 501.307 297.695 499.097" stroke="#30242A" stroke-width="4" stroke-linecap="round" stroke-linejoin="round"/>
<path d="M350.163 534.235C335.932 528.16 308.749 517.136 294.127 515.062" stroke="#30242A" stroke-width="4" stroke-linecap="round" stroke-linejoin="round"/>
<path d="M178.526 496.104C170.854 497.278 158.809 499.224 146.775 501.504" stroke="#30242A" stroke-width="4" stroke-linecap="round" stroke-linejoin="round"/>
<path d="M340.047 548.791C329.374 543.636 306.883 533.384 291.074 530.528" stroke="#30242A" stroke-width="4" stroke-linecap="round" stroke-linejoin="round"/>
</svg>
