<svg width="456" height="869" viewBox="0 0 456 869" fill="none" xmlns="http://www.w3.org/2000/svg">
<rect width="456" height="869" fill="#1E1E1E"/>
<g clip-path="url(#clip0_0_1)">
<rect y="-155" width="1518" height="1024" rx="20" fill="white"/>
<path d="M-33.7861 28.2906H-21.896C23.0353 28.301 66.1225 45.24 97.8899 75.3824C129.657 105.525 147.503 146.402 147.503 189.025V495.663H-203.278V189.025C-203.278 167.913 -198.894 147.008 -190.375 127.503C-181.857 107.999 -169.372 90.2775 -153.632 75.3513C-137.893 60.4251 -119.207 48.5865 -98.644 40.5117C-78.0806 32.437 -56.0417 28.2842 -33.7861 28.2906V28.2906Z" fill="#FFB7D5"/>
<path d="M35.8012 311.08V500.437H-119.852V311.08H35.8012ZM39.9261 307.167H-123.977V504.35H39.9261V307.167Z" fill="#CA7358"/>
<path d="M39.9261 307.157H-123.977V347.92H39.9261V307.157Z" fill="#CA7358"/>
<path d="M164.467 149.436V500.437H40.8021V149.436H164.467ZM168.592 145.523H36.6772V504.35H168.592V145.523Z" fill="#CA7358"/>
<path d="M90.3015 193.398H91.4873C95.9672 193.398 100.264 195.086 103.431 198.091C106.599 201.096 108.379 205.172 108.379 209.421V245.538H73.3997V209.421C73.3997 207.316 73.8369 205.232 74.6864 203.287C75.5359 201.342 76.7811 199.575 78.3507 198.087C79.9203 196.599 81.7837 195.419 83.8342 194.615C85.8848 193.81 88.0824 193.396 90.3015 193.398V193.398Z" fill="#CA7358"/>
<path d="M69.4089 221.835H112.38" stroke="#FFB7D5" stroke-width="4" stroke-linecap="round" stroke-linejoin="round"/>
<path d="M90.3015 286.937H91.4873C95.9672 286.937 100.264 288.625 103.431 291.63C106.599 294.635 108.379 298.711 108.379 302.96V339.077H73.3997V302.96C73.3997 300.855 73.8369 298.771 74.6864 296.826C75.5359 294.881 76.7811 293.114 78.3507 291.626C79.9203 290.138 81.7837 288.958 83.8342 288.154C85.8848 287.349 88.0824 286.935 90.3015 286.937V286.937Z" fill="#F5EBDD"/>
<path d="M69.4089 315.374H112.38" stroke="#FFB7D5" stroke-width="4" stroke-linecap="round" stroke-linejoin="round"/>
<path d="M90.3015 380.476H91.4873C95.9672 380.476 100.264 382.164 103.431 385.169C106.599 388.174 108.379 392.249 108.379 396.499V432.616H73.3997V396.499C73.3997 392.249 75.1793 388.174 78.3471 385.169C81.5148 382.164 85.8112 380.476 90.2911 380.476H90.3015Z" fill="#F5EBDD"/>
<path d="M69.4089 408.913H112.38" stroke="#FFB7D5" stroke-width="4" stroke-linecap="round" stroke-linejoin="round"/>
<path d="M90.3015 474.015H91.4873C95.9672 474.015 100.264 475.703 103.431 478.708C106.599 481.713 108.379 485.789 108.379 490.038V523.22H73.3997V490.038C73.3997 487.933 73.8369 485.849 74.6864 483.904C75.5359 481.96 76.7811 480.193 78.3507 478.705C79.9203 477.217 81.7837 476.036 83.8342 475.232C85.8848 474.427 88.0824 474.014 90.3015 474.015V474.015Z" fill="#30242A"/>
<path d="M168.592 145.523H36.6772V161.165H168.592V145.523Z" fill="#CA7358"/>
<path d="M6.44205 384.897H-28.5371V427.558H6.44205V384.897Z" fill="#30242A"/>
<path d="M-32.5277 403.856H10.4435" stroke="#FFB7D5" stroke-width="4" stroke-linecap="round" stroke-linejoin="round"/>
<path d="M6.44205 461.943H-28.5371V504.604H6.44205V461.943Z" fill="#F5EBDD"/>
<path d="M-32.5277 480.902H10.4435" stroke="#FFB7D5" stroke-width="4" stroke-linecap="round" stroke-linejoin="round"/>
<path d="M192.475 495.82H-248.25V524.257H192.475V495.82Z" fill="#F5EBDD"/>
<path d="M-20.9265 0H-34.817C-144.395 0 -233.225 84.2654 -233.225 188.213V524.257H177.523V188.213C177.492 84.2654 88.6516 0 -20.9265 0ZM-42.8709 495.82H-203.278V258.812H-42.8709V495.82ZM-42.8709 230.375H-203.278V189.181C-203.276 148.036 -186.642 108.457 -156.801 78.5966C-126.96 48.7363 -86.1836 30.8682 -42.8709 28.6721V230.375ZM147.504 495.82H-12.8932V258.812H147.504V495.82ZM147.504 230.375H-12.8932V28.6721C30.4186 30.8682 71.1934 48.7367 101.033 78.5973C130.873 108.458 147.505 148.037 147.504 189.181V230.375Z" fill="#F5EBDD"/>
<path d="M319.976 551.726C319.982 552.773 319.758 553.809 319.316 554.768C316.222 561.45 303.002 562.438 289.854 556.969C278.84 552.401 271.354 544.751 271.034 538.461V621.885H320.007V551.726H319.976Z" fill="#FFBE21"/>
<path d="M301.146 532.797C287.997 527.329 274.798 528.317 271.683 534.998C271.182 536.095 270.96 537.288 271.034 538.481C271.353 544.771 278.84 552.421 289.854 556.989C303.002 562.457 316.201 561.469 319.316 554.788C319.757 553.829 319.982 552.792 319.976 551.746C320.007 545.377 312.427 537.473 301.146 532.797Z" fill="#A15842"/>
<path d="M357.523 579.244C357.203 585.534 349.716 593.184 338.703 597.762C325.544 603.221 312.355 602.242 309.23 595.551C308.794 594.594 308.569 593.562 308.57 592.519V592.519V621.866H357.533V579.244H357.523Z" fill="#FFBE21"/>
<path d="M356.873 575.761C353.779 569.08 340.559 568.092 327.401 573.56C316.129 578.246 308.55 586.14 308.57 592.519C308.569 593.562 308.794 594.594 309.23 595.551C312.324 602.242 325.544 603.22 338.703 597.762C349.716 593.184 357.203 585.534 357.523 579.244C357.597 578.051 357.374 576.858 356.873 575.761Z" fill="#A15842"/>
<path d="M310.004 621.905V593.467" stroke="#A15842" stroke-width="4" stroke-miterlimit="10" stroke-linecap="round"/>
<path d="M295.515 526.624V542.746" stroke="#30242A" stroke-width="4" stroke-linecap="round" stroke-linejoin="round"/>
<path d="M333.052 567.398V584.458" stroke="#30242A" stroke-width="4" stroke-linecap="round" stroke-linejoin="round"/>
<path d="M85.836 899C84.5859 899.001 83.3534 898.721 82.2399 898.182C81.1264 897.643 80.1637 896.861 79.4308 895.9C78.6979 894.939 78.2158 893.827 78.0242 892.656C77.8326 891.484 77.937 890.285 78.3286 889.159L103.078 817.611C103.601 816.111 104.608 814.806 105.958 813.88C107.308 812.955 108.93 812.456 110.596 812.456H127.941C129.319 812.455 130.673 812.796 131.869 813.445C133.065 814.094 134.061 815.029 134.759 816.156C135.456 817.284 135.831 818.565 135.845 819.872C135.859 821.179 135.513 822.467 134.84 823.608L92.7039 895.156C92.0224 896.318 91.0269 897.286 89.8198 897.962C88.6127 898.638 87.2376 898.996 85.836 899V899Z" fill="#30242A"/>
<path d="M417.396 899C418.646 899.001 419.878 898.721 420.992 898.182C422.105 897.643 423.068 896.861 423.801 895.9C424.534 894.939 425.016 893.827 425.207 892.656C425.399 891.484 425.295 890.285 424.903 889.159L400.154 817.611C399.632 816.113 398.625 814.808 397.278 813.883C395.93 812.958 394.31 812.458 392.646 812.456H375.291C373.914 812.458 372.562 812.801 371.367 813.451C370.173 814.1 369.178 815.035 368.481 816.161C367.785 817.288 367.41 818.567 367.394 819.873C367.378 821.179 367.722 822.466 368.392 823.608L410.528 895.156C411.211 896.316 412.207 897.284 413.414 897.959C414.62 898.635 415.995 898.994 417.396 899V899Z" fill="#30242A"/>
<path d="M455.664 621.905H48.9182V842.791H455.664V621.905Z" fill="#A15842"/>
<path d="M425.677 650.342H78.8965V814.354H425.677V650.342Z" fill="#FFB7D5"/>
<path d="M251.915 647.505V817.2" stroke="#A15842" stroke-width="4" stroke-miterlimit="10"/>
<path d="M292.783 742.287C298.569 742.287 303.26 737.837 303.26 732.348C303.26 726.859 298.569 722.409 292.783 722.409C286.997 722.409 282.306 726.859 282.306 732.348C282.306 737.837 286.997 742.287 292.783 742.287Z" fill="#30242A"/>
<path d="M211.79 742.287C217.576 742.287 222.267 737.837 222.267 732.348C222.267 726.859 217.576 722.409 211.79 722.409C206.003 722.409 201.312 726.859 201.312 732.348C201.312 737.837 206.003 742.287 211.79 742.287Z" fill="#30242A"/>
<path d="M-16.9152 852.28L-98.5883 887.418C-99.9712 888.335 -100.94 889.712 -101.303 891.275C-101.666 892.838 -101.396 894.473 -100.547 895.856C-99.6979 897.239 -98.3317 898.269 -96.7196 898.741C-95.1074 899.213 -93.3671 899.092 -91.844 898.404L32.0887 843.623C27.2316 830.905 14.7435 826.014 -14.8424 821.123L-16.1108 820.898C-18.5624 831.205 -18.8358 841.872 -16.9152 852.28Z" fill="#3EC1F3"/>
<path d="M205.458 423.968C205.458 423.968 197.353 441.264 176.089 441.264C154.825 441.264 146.679 423.968 146.679 423.968C146.679 423.968 86.8674 553.683 145.647 621.905H206.417C265.166 553.683 205.458 423.968 205.458 423.968Z" fill="#3EC1F3"/>
<path d="M176.037 441.264C197.301 441.264 205.407 423.968 205.407 423.968H146.627C146.627 423.968 154.763 441.264 176.037 441.264Z" fill="#30242A"/>
<path d="M230.971 539.449C197.91 540.007 158.785 551.335 128.673 591.296" stroke="#F5EBDD" stroke-width="4" stroke-linecap="round" stroke-linejoin="round"/>
<path d="M123.383 507.705C145.575 502.569 187.597 497.678 228.331 506.874" stroke="#F5EBDD" stroke-width="4" stroke-linecap="round" stroke-linejoin="round"/>
<path d="M228.145 572.748C213.357 572.915 186.019 588.811 189.03 620.848" stroke="#F5EBDD" stroke-width="4" stroke-linecap="round" stroke-linejoin="round"/>
<path d="M172.315 435.511C171.696 421.571 167.788 366.174 144.585 333.677" stroke="#30242A" stroke-width="4" stroke-miterlimit="10" stroke-linecap="round"/>
<path d="M167.479 392.914C170.445 388.144 154.721 374.132 132.358 361.616C109.995 349.1 89.4617 342.82 86.4953 347.59C83.529 352.359 99.2529 366.372 121.616 378.888C143.979 391.404 164.512 397.683 167.479 392.914Z" fill="#30242A"/>
<path d="M158.794 254.666C163.148 252.311 160.91 240.806 153.796 228.97C146.682 217.133 137.385 209.446 133.031 211.801C128.677 214.156 130.915 225.661 138.029 237.497C145.144 249.334 154.44 257.021 158.794 254.666Z" fill="#30242A"/>
<path d="M82.2064 304.848C84.5473 299.908 95.5607 299.546 108.946 303.332C100.696 289.333 98.1698 276.313 103.625 272.958C109.08 269.602 120.609 277.027 130.726 289.911C132.51 276.773 137.336 267.411 143.1 267.352C150.381 267.352 156.341 282.584 156.413 301.424C156.457 306.812 155.953 312.191 154.908 317.487C151.733 316.108 148.246 315.503 144.762 315.728C141.279 315.952 137.909 316.999 134.961 318.773C132.012 320.546 129.577 322.991 127.878 325.884C126.178 328.778 125.268 332.028 125.229 335.34C119.89 334.098 114.684 332.389 109.678 330.234C91.4977 322.515 79.2261 311.158 82.2064 304.848Z" fill="#4756DF"/>
<path d="M134.726 318.905C137.685 317.081 141.082 315.996 144.602 315.751C148.121 315.507 151.649 316.11 154.856 317.506C153.082 326.262 149.875 332.757 146.018 334.87C142.347 337.404 134.572 337.502 125.177 335.359C125.216 332.083 126.108 328.866 127.774 325.995C129.44 323.124 131.828 320.689 134.726 318.905V318.905Z" fill="#30242A"/>
<path d="M180.049 434.67C182.895 419.273 197.714 343.782 221.432 301.072" stroke="#30242A" stroke-width="4" stroke-miterlimit="10" stroke-linecap="round"/>
<path d="M301.488 405.692C303.194 400.696 280.411 389.22 250.601 380.059C220.791 370.898 195.242 367.521 193.535 372.517C191.829 377.513 214.612 388.989 244.423 398.15C274.233 407.311 299.782 410.688 301.488 405.692Z" fill="#30242A"/>
<path d="M216.966 234.895C222.659 234.405 228.392 243.337 231.476 256.259C240.262 242.564 251.007 234.092 256.772 236.959C262.536 239.825 261.361 252.992 254.482 267.675C267.435 262.716 278.438 262.09 281.294 266.805C284.883 272.811 273.797 285.225 256.545 294.518C251.624 297.194 246.445 299.415 241.076 301.151C240.782 297.854 239.626 294.678 237.712 291.913C235.798 289.147 233.186 286.878 230.114 285.311C227.042 283.744 223.607 282.929 220.119 282.939C216.631 282.95 213.201 283.786 210.14 285.372C208.667 280.345 207.683 275.201 207.201 270.004C205.293 251.241 209.717 235.521 216.966 234.895Z" fill="#4756DF"/>
<path d="M229.826 285.195C232.953 286.747 235.617 289.024 237.569 291.813C239.522 294.602 240.7 297.814 240.994 301.15C232.074 303.977 224.495 304.516 220.7 302.363C216.575 300.573 212.667 294.185 210.027 285.371C213.055 283.794 216.448 282.953 219.903 282.922C223.358 282.892 226.767 283.673 229.826 285.195Z" fill="#30242A"/>
<path d="M278.449 324.452V324.53C273.599 326.427 269.674 329.98 267.449 334.486C265.224 338.993 264.86 344.127 266.429 348.876C267.998 353.625 271.386 357.644 275.925 360.139C280.463 362.635 285.823 363.427 290.947 362.359V362.437C263.774 370.508 238.942 368.551 235.477 358.055C232.013 347.558 251.276 332.523 278.449 324.452Z" fill="#4756DF"/>
<path d="M271.983 357.35C274.366 356.445 276.3 354.718 277.398 352.516C278.496 350.315 278.676 347.801 277.903 345.479C277.129 343.157 275.459 341.197 273.228 339.994C270.996 338.79 268.367 338.431 265.867 338.989C266.553 335.782 268.061 332.784 270.259 330.262C272.457 327.74 275.277 325.772 278.469 324.53L290.968 362.359C287.613 363.062 284.127 362.973 280.817 362.1C277.507 361.227 274.473 359.596 271.983 357.35Z" fill="#FFB7D5"/>
<path d="M277.861 345.514C278.626 347.826 278.447 350.328 277.358 352.52C276.269 354.713 274.35 356.437 271.983 357.35C269.409 355.031 267.497 352.129 266.428 348.918C265.358 345.707 265.165 342.29 265.868 338.989C268.365 338.446 270.987 338.817 273.209 340.026C275.432 341.235 277.093 343.195 277.861 345.514V345.514Z" fill="#30242A"/>
</g>
<defs>
<clipPath id="clip0_0_1">
<rect y="-155" width="1518" height="1024" rx="20" fill="white"/>
</clipPath>
</defs>
</svg>
