<svg width="652" height="887" viewBox="0 0 652 887" fill="none" xmlns="http://www.w3.org/2000/svg">
<path d="M214.409 483.57H188.519V901H214.409V483.57Z" fill="#FFBE21"/>
<path d="M214.42 489.31H188.519" stroke="#A15842" stroke-width="4" stroke-miterlimit="10"/>
<path d="M71.0322 817.24C73.6548 810.105 78.5526 803.921 85.0465 799.545C91.5405 795.169 99.3088 792.818 107.274 792.818C115.24 792.818 123.008 795.169 129.502 799.545C135.996 803.921 140.894 810.105 143.517 817.24C146.02 810.428 150.599 804.475 156.675 800.136C162.75 795.798 170.047 793.268 177.64 792.87C174.25 787.139 170.214 781.774 165.601 776.87L151.665 762C147.333 757.38 144.604 751.608 143.85 745.466C143.095 739.324 144.352 733.111 147.449 727.67L159.276 706.82C155.956 709.99 136.759 727.04 107.622 727.04C78.4851 727.04 59.2888 709.99 55.9681 706.82H55.9154L67.7537 727.67C70.8368 733.122 72.074 739.343 71.2969 745.486C70.5197 751.628 67.766 757.395 63.4105 762L49.485 776.81C44.8644 781.714 40.8174 787.079 37.4148 792.81C44.9262 793.306 52.1181 795.887 58.0954 800.231C64.0726 804.574 68.5715 810.489 71.0322 817.24Z" fill="#4756DF"/>
<path d="M179.759 838.31C171.791 838.311 164.021 840.665 157.527 845.044C151.033 849.424 146.136 855.612 143.517 862.75C140.899 855.61 136.003 849.421 129.509 845.041C123.014 840.661 115.243 838.307 107.274 838.307C99.3058 838.307 91.5349 840.661 85.0403 845.041C78.5458 849.421 73.6499 855.61 71.0322 862.75C67.8624 854.123 61.3913 846.941 52.9017 842.627C44.4122 838.313 34.5239 837.183 25.197 839.46C25.7325 862.537 35.5362 884.549 52.6054 901H162.439C179.474 884.584 189.274 862.628 189.847 839.6C186.56 838.745 183.167 838.311 179.759 838.31Z" fill="#4756DF"/>
<path d="M107.538 727.08C136.675 727.08 155.872 710.03 159.192 706.86H55.8839C59.2045 710 78.4009 727.08 107.538 727.08Z" fill="#30242A"/>
<path d="M71.0323 862.75C73.6499 855.61 78.5458 849.421 85.0404 845.041C91.5349 840.661 99.3059 838.307 107.275 838.307C115.243 838.307 123.014 840.661 129.509 845.041C136.003 849.421 140.899 855.61 143.517 862.75C146.713 854.032 153.281 846.79 161.893 842.492C170.504 838.195 180.515 837.161 189.9 839.6C190.333 823.262 186.105 807.116 177.661 792.87C170.068 793.268 162.771 795.798 156.696 800.136C150.621 804.475 146.041 810.428 143.538 817.24C140.915 810.105 136.017 803.921 129.524 799.545C123.03 795.169 115.261 792.818 107.296 792.818C99.33 792.818 91.5616 795.169 85.0677 799.545C78.5738 803.921 73.676 810.105 71.0533 817.24C68.5775 810.506 64.072 804.61 58.096 800.283C52.1199 795.956 44.9362 793.389 37.436 792.9C29.0303 807.098 24.81 823.181 25.2182 839.46C34.545 837.183 44.4333 838.313 52.9229 842.627C61.4125 846.941 67.8835 854.123 71.0533 862.75H71.0323Z" fill="#3EC1F3"/>
<path d="M115.191 724.22C117.3 711.98 126.882 663.46 150.98 637.09" stroke="#30242A" stroke-width="4" stroke-miterlimit="10" stroke-linecap="round"/>
<path d="M104.07 724.57C103.912 710.67 102.404 642.42 88.0992 601.7" stroke="#30242A" stroke-width="4" stroke-miterlimit="10" stroke-linecap="round"/>
<path d="M167.473 676.814C188.603 667.995 204.036 657.19 201.944 652.681C199.853 648.172 181.028 651.666 159.899 660.485C138.77 669.305 123.337 680.11 125.428 684.619C127.52 689.128 146.344 685.634 167.473 676.814Z" fill="#30242A"/>
<path d="M167.461 552.749C175.057 543.007 178.312 533.073 174.732 530.56C171.151 528.048 162.09 533.908 154.494 543.65C146.898 553.392 143.643 563.326 147.224 565.838C150.804 568.351 159.865 562.49 167.461 552.749Z" fill="#30242A"/>
<path d="M53.0638 683.74C80.6088 679.788 102.342 672.844 101.606 668.23C100.871 663.615 77.9448 663.078 50.3998 667.03C22.8547 670.982 1.12139 677.926 1.85704 682.54C2.5927 687.155 25.5187 687.692 53.0638 683.74Z" fill="#30242A"/>
<path d="M33.8202 615.58V615.65C37.8901 617.809 40.9597 621.336 42.4238 625.536C43.8879 629.735 43.6403 634.303 41.7299 638.338C39.8194 642.373 36.3846 645.583 32.1027 647.334C27.8209 649.086 23.0027 649.252 18.598 647.8V647.86C41.6843 657.7 63.8323 658.45 68.049 649.54C72.2656 640.63 56.917 625.42 33.8202 615.58Z" fill="#FF7235"/>
<path d="M102.077 544.26C97.165 543.05 90.7768 550.1 86.1068 561.01C80.4881 547.76 72.3394 538.89 66.8472 540.61C61.355 542.33 60.3746 554.05 64.1802 567.87C53.5753 561.75 44.0245 559.69 40.8304 563.44C36.7613 568.22 44.6043 580.62 58.3506 591.15C62.2615 594.172 66.4694 596.831 70.9163 599.09C71.6743 596.234 73.1726 593.602 75.275 591.435C77.3774 589.267 80.0174 587.633 82.955 586.679C85.8927 585.725 89.035 585.483 92.0965 585.974C95.158 586.465 98.0417 587.673 100.486 589.49C102.546 585.283 104.191 580.905 105.398 576.41C109.836 560.2 108.35 545.8 102.077 544.26Z" fill="#FF7235"/>
<path d="M209.244 617.87C207.726 613.27 198.038 611.87 185.81 613.87C194.686 602.34 198.312 591.09 193.874 587.58C189.436 584.07 178.42 589.48 168.068 599.85C167.942 588.07 164.727 579.29 159.688 578.7C153.268 577.95 146.31 590.83 144.16 607.45C143.523 612.202 143.367 617 143.696 621.78C146.653 620.876 149.802 620.688 152.856 621.232C155.91 621.777 158.772 623.037 161.181 624.899C163.591 626.76 165.471 629.163 166.652 631.89C167.833 634.616 168.276 637.579 167.942 640.51C172.797 639.927 177.585 638.923 182.247 637.51C199.082 632.54 211.173 623.73 209.244 617.87Z" fill="#FF7235"/>
<path d="M161.322 625C158.911 623.092 156.031 621.794 152.949 621.226C149.867 620.658 146.684 620.838 143.696 621.75C144.297 629.66 146.405 635.75 149.578 637.96C152.54 640.56 159.392 641.43 167.921 640.48C168.253 637.583 167.824 634.654 166.673 631.953C165.521 629.252 163.683 626.863 161.322 625Z" fill="#30242A"/>
<path d="M83.1446 586.62C80.1639 587.553 77.48 589.185 75.3422 591.365C73.2043 593.545 71.6819 596.203 70.9163 599.09C78.2954 602.79 84.8523 604.29 88.5419 602.93C92.4318 601.93 96.8277 596.86 100.486 589.49C98.0695 587.691 95.2214 586.487 92.1955 585.987C89.1697 585.486 86.0602 585.703 83.1446 586.62Z" fill="#30242A"/>
<path d="M35.8758 645.27C33.8935 644.221 32.3986 642.505 31.6872 640.46C30.9757 638.416 31.0996 636.192 32.0343 634.23C32.9691 632.268 34.6464 630.711 36.7342 629.866C38.822 629.022 41.168 628.952 43.3077 629.67C43.0602 626.777 42.0651 623.986 40.4103 621.544C38.7556 619.102 36.4922 617.085 33.8202 615.67L18.5664 647.8C21.4494 648.755 24.5356 649.024 27.5537 648.583C30.5718 648.141 33.4295 647.004 35.8758 645.27Z" fill="#F5EBDD"/>
<path d="M31.9965 634.24C31.0771 636.202 30.9654 638.419 31.6834 640.455C32.4014 642.491 33.8971 644.198 35.8758 645.24C38.4095 643.453 40.4214 641.083 41.7217 638.353C43.0221 635.624 43.5678 632.625 43.3077 629.64C41.1581 628.914 38.7989 628.984 36.7017 629.837C34.6045 630.69 32.9241 632.262 31.9965 634.24Z" fill="#4856DF"/>
<path d="M728.653 650.38H460.547L465.08 633.32H582.767L627.653 466.8C633.768 444.118 647.669 424.012 667.163 409.653C686.657 395.295 710.635 387.501 735.315 387.5C795.709 387.5 839.899 441.5 824.92 497L797.184 599.89C793.292 614.329 784.444 627.128 772.035 636.27C759.627 645.412 744.364 650.376 728.653 650.38Z" fill="#FFB7D5"/>
<path d="M462.624 807.97V826.03H633.493V807.97H462.624Z" fill="#A15842"/>
<path d="M661.64 891.3L617.196 640.35H478.91L434.467 891.3C434.257 892.494 434.324 893.716 434.663 894.883C435.002 896.05 435.604 897.132 436.429 898.055C437.254 898.979 438.281 899.72 439.438 900.229C440.596 900.737 441.856 901 443.132 901C445.136 900.998 447.08 900.347 448.64 899.154C450.201 897.961 451.285 896.297 451.713 894.44L509.924 640.35H586.225L644.415 894.44C644.841 896.298 645.924 897.962 647.485 899.156C649.046 900.349 650.991 901 652.995 901C654.269 900.998 655.527 900.732 656.682 900.223C657.837 899.713 658.862 898.971 659.684 898.048C660.507 897.125 661.107 896.043 661.445 894.878C661.783 893.713 661.849 892.492 661.64 891.3Z" fill="#A15842"/>
<path d="M604.177 807.97V826.03H775.047V807.97H604.177Z" fill="#FFBE21"/>
<path d="M803.193 891.3L758.707 640.35H620.474L576.031 891.3C575.821 892.494 575.888 893.716 576.227 894.883C576.566 896.05 577.168 897.132 577.993 898.055C578.818 898.979 579.845 899.72 581.002 900.229C582.16 900.737 583.42 901 584.696 901C586.699 901 588.642 900.349 590.202 899.155C591.761 897.962 592.842 896.298 593.266 894.44L651.456 640.35H727.767L785.957 894.44C786.384 896.3 787.469 897.965 789.032 899.159C790.595 900.353 792.542 901.002 794.549 901C795.823 900.998 797.081 900.732 798.236 900.223C799.391 899.713 800.415 898.971 801.238 898.048C802.06 897.125 802.661 896.043 802.999 894.878C803.336 893.713 803.403 892.492 803.193 891.3Z" fill="#FFBE21"/>
<path d="M663.527 599.89L680.478 537H568.135C546.105 537.001 524.701 543.957 507.3 556.773C489.898 569.588 477.488 587.534 472.027 607.78L460.547 650.38H594.985C610.698 650.378 625.963 645.415 638.373 636.273C650.784 627.131 659.633 614.331 663.527 599.89Z" fill="#FFB7D5"/>
<path d="M467.852 631.65H610.481" stroke="#A15842" stroke-width="4" stroke-linecap="round" stroke-linejoin="round"/>
<path d="M583.273 631.02L608.267 538.32" stroke="#A15842" stroke-width="4" stroke-linecap="round" stroke-linejoin="round"/>
<path d="M510.251 469.53C510.251 469.53 425.675 491.38 389.749 508.43C330.515 536.52 330.716 555.06 294.6 658.85C261.257 754.77 257.588 801.26 211.595 803.1C176.48 804.5 164.969 815.4 159.276 830.34L298.226 892.88C299.819 893.595 301.639 893.705 303.315 893.189C304.991 892.672 306.395 891.567 307.239 890.1C308.1 888.601 308.309 886.842 307.823 885.198C307.337 883.554 306.193 882.156 304.636 881.3L301.715 879.7C314.629 864.86 339.539 833.24 364.375 785.21L380.188 792.21C380.188 792.21 405.73 760.72 409.778 725C415.049 678.87 411.886 647.78 434.098 629.73L693.107 469.49L510.251 469.53Z" fill="#FF7235"/>
<path d="M197.943 810.51C200.695 805.08 215.98 772 224.772 776C236.21 781.2 206.524 814.41 206.524 814.41L197.943 810.51Z" fill="#30242A"/>
<path d="M159.266 830.81L298.216 893.34C299.824 894.068 301.668 894.177 303.359 893.644C305.051 893.11 306.458 891.976 307.288 890.48C308.117 888.983 308.303 887.24 307.806 885.616C307.31 883.992 306.17 882.614 304.625 881.77L301.705 880.17L302 879.83L206.493 837.06C207.924 833.299 208.927 829.403 209.487 825.44C223.781 827.79 252.707 830.32 252.855 819.01C253.013 808.47 221.42 812.7 209.877 815.68C209.628 811.629 208.798 807.629 207.41 803.79C175.563 805.87 164.727 816.47 159.266 830.81Z" fill="#30242A"/>
<path d="M389.749 508.43C383.097 511.58 377.204 514.61 371.923 517.65L363.817 542.28L395.02 521.43L423.788 543.19L413.183 513.36L445.767 499.2L420.583 496.2C410.083 499.754 399.791 503.836 389.749 508.43Z" fill="#FFB7D5"/>
<path d="M481.683 495.61L479.575 508.64L493.321 503.63L481.683 495.61Z" fill="#FFB7D5"/>
<path d="M402.399 560.79L382.317 585.86L353.77 572.83L370.679 599.9L344.251 620.96L378.079 616.95L389.717 654.06L401.345 616.95L438.346 606.92L402.399 592.88V560.79Z" fill="#FFB7D5"/>
<path d="M289.498 752.21L291.965 745.53L325.698 743.83L298.29 726.13L310.497 698.4L282.888 715.86L277.617 710.46C273.401 723.63 269.669 735.36 266.021 745.67H266.19C266.591 744.54 266.991 743.4 267.392 742.24L289.498 752.21Z" fill="#FFB7D5"/>
<path d="M289.498 752.21L267.36 742.28C266.96 743.44 266.559 744.58 266.159 745.71C252.781 783.51 240.595 802.41 211.616 803.57C210.193 803.57 208.822 803.7 207.473 803.79C208.861 807.629 209.691 811.629 209.94 815.68C221.536 812.68 253.076 808.47 252.918 819.01C252.75 830.32 223.844 827.79 209.55 825.44C208.98 829.404 207.966 833.3 206.524 837.06L302.032 879.83C315.019 864.83 339.718 833.37 364.365 785.74L289.498 752.21Z" fill="#EAA58B"/>
<path d="M373.852 676.12L370.69 703.2L341.089 702.2L366.462 720.26L356.975 752.35L382.37 731.28L405.192 745.72C405.825 743.807 406.405 741.87 406.932 739.91L398.182 719.24L411.739 705.15C411.96 702.53 412.171 699.95 412.371 697.44L388.695 701.19L373.852 676.12Z" fill="#FFB7D5"/>
<path d="M307.914 619.83C305.247 627.65 302.38 636.14 299.217 645.37L327.342 647L307.914 619.83Z" fill="#FFB7D5"/>
<path d="M407.227 864.13C407.67 858.13 409.051 822.03 418.77 822.68C431.42 823.52 416.715 864.76 416.715 864.76L407.227 864.13Z" fill="#30242A"/>
<path d="M641.347 471C641.347 471 535.625 489.6 477.477 512.66C418.77 535.95 419.339 577.31 429.902 689.66C439.39 790.24 456.341 839.08 421.469 854.12C389.485 867.92 378.375 885.22 379.893 901.04H537.332C538.22 901.04 539.098 900.874 539.918 900.552C540.738 900.23 541.483 899.758 542.11 899.163C542.738 898.567 543.236 897.861 543.575 897.083C543.915 896.305 544.09 895.472 544.09 894.63C544.09 892.93 543.378 891.3 542.11 890.097C540.843 888.895 539.124 888.22 537.332 888.22H534.676C539.641 872.81 546.841 842.73 547.832 792.95H567.355C567.355 792.95 577.391 748.95 566.301 709.71C554.705 668.6 544.1 661.58 537.765 633.5H632.503C704.85 633.5 759.002 570.02 743.264 503.04C738.351 482.11 731.225 471.04 731.225 471.04L641.347 471Z" fill="#FF7235"/>
<path d="M575.799 529.7L556.392 552.86L526.169 543.01L544.079 570.82L520.824 600.91L551.479 588.87L568.567 618.75L570.507 585.86L600.108 579.85L574.745 564.8L575.799 529.7Z" fill="#FFB7D5"/>
<path d="M533.569 708.48L551.49 736.29L528.235 766.38L558.89 754.38L570.254 774.25C571.92 758.81 572.742 735.97 567.429 714.04L563.802 718.37L533.569 708.48Z" fill="#FFB7D5"/>
<path d="M454.528 792.91L453.168 777.41L487.491 764.85L455.002 758.46L458.586 724.63L437.503 750.8L436.87 750.55C438.894 766.7 440.665 780.81 441.656 793.02V792.91H454.528Z" fill="#FFB7D5"/>
<path d="M537.332 888.18H534.676C539.641 872.77 546.841 842.69 547.832 792.91H441.625V793C441.709 794 441.783 795 441.856 796C441.856 796.09 441.856 796.19 441.856 796.28C444.06 827.53 440.465 845.81 421.427 854.02C389.443 867.82 378.332 885.12 379.85 900.94H537.332C539.124 900.94 540.843 900.265 542.11 899.062C543.378 897.86 544.089 896.23 544.089 894.53C544.089 892.83 543.378 891.2 542.11 889.997C540.843 888.795 539.124 888.12 537.332 888.12V888.18Z" fill="#EAA58B"/>
<path d="M678.295 473.59L629.73 477.67L634.79 496.19L603.724 511.91L642.422 516.82L655.515 544.33L668.977 515.84L708.339 509.94L674.153 493.24L678.295 473.59Z" fill="#FFB7D5"/>
<path d="M446.822 603.91L458.417 568.81L492.246 573.81L465.818 551.75L484.793 530.69L449.91 542.69L444.334 533.62C435.363 543.26 429.944 555.23 427.045 570.62L432.991 570.8L446.822 603.91Z" fill="#FFB7D5"/>
<path d="M537.332 493.8C530.196 495.68 523.09 497.65 516.154 499.68L544.1 517.68L537.332 493.8Z" fill="#FFB7D5"/>
<path d="M491.223 656.06L476.423 626.98L469.022 659.07L441.54 657.07L466.903 678.13L451.049 713.23L478.573 688.89L501.385 713.84L494.396 676.12L517.651 647.04L491.223 656.06Z" fill="#FFB7D5"/>
<path d="M428.469 876.45C442.447 872.79 469.729 863.37 464.795 853.08C460.199 843.48 433.529 860.08 424.431 867.47C422.135 863.473 419.201 859.837 415.734 856.69C388.136 870.02 378.448 886.16 379.893 901H537.332C539.125 901 540.843 900.325 542.11 899.123C543.378 897.92 544.09 896.29 544.09 894.59C544.09 892.89 543.378 891.26 542.11 890.058C540.843 888.855 539.125 888.18 537.332 888.18H430.967C430.572 884.198 429.734 880.266 428.469 876.45Z" fill="#30242A"/>
<path d="M537.332 635.71L510.114 635.35" stroke="#A15842" stroke-width="4" stroke-miterlimit="10" stroke-linecap="round"/>
<path d="M557.572 489.42C529.373 496.24 499.235 504.61 476.402 513.65C427.699 533 419.803 564.76 424.537 639.24" stroke="#A15842" stroke-width="4" stroke-miterlimit="10" stroke-linecap="round"/>
<path d="M539.852 169.68C525.093 167.68 491.286 182.73 490.169 212.48C489.051 242.23 517.05 251.79 521.53 253.92L586.499 244.35L590.979 176.35L539.852 169.68Z" fill="#A15842"/>
<path d="M654.629 95.8C682.517 95.8 705.124 74.3544 705.124 47.9C705.124 21.4456 682.517 0 654.629 0C626.742 0 604.135 21.4456 604.135 47.9C604.135 74.3544 626.742 95.8 654.629 95.8Z" fill="#A15842"/>
<path d="M621.877 80.84C624.955 82.19 599.033 23.84 585.803 32.94C573.353 41.53 606.243 74 621.877 80.84Z" fill="#30242A"/>
<path d="M623.31 84.41C626.135 87.61 692.274 65.66 683.123 53C674.374 40.82 620.485 81.2 623.31 84.41Z" fill="#30242A"/>
<path d="M711.112 244.89C711.112 244.89 755.513 209.79 726.924 170.68C708.729 145.75 659.257 155.68 659.257 155.68C660.459 141.99 664.38 102.55 633.114 80.88C601.847 59.21 562.179 70.62 547.726 87.72C533.274 104.82 536.911 136.77 532.104 159.58C527.297 182.39 530.501 197.9 545.323 205.2C558.806 211.84 574.671 207.83 574.671 207.83L572.984 231.9C572.984 231.9 542.413 232.99 523.681 239.42C478.541 254.92 399.236 361.22 399.236 361.22C349.554 359.22 303.033 357.22 303.033 357.22L327.353 425.42C327.353 425.42 388.663 444.47 433.065 433.42C478.109 422.23 520.814 362.22 520.814 362.22L535.572 402.33L510.198 469.52H731.151L694.15 407.34C700.549 352.2 711.112 244.89 711.112 244.89Z" fill="#EAA58B"/>
<path d="M640.114 229.4L582.134 329.13L558.416 232.9C547.99 233.9 534.096 235.84 523.786 239.38C478.541 254.92 399.236 361.22 399.236 361.22C349.554 359.22 303.033 357.22 303.033 357.22L327.353 425.42C327.353 425.42 388.663 444.47 433.065 433.42C478.109 422.23 520.814 362.22 520.814 362.22L535.572 402.33L510.198 469.52H731.151L694.15 407.35C700.475 352.19 711.017 244.88 711.017 244.88C701.228 239.227 690.51 235.171 679.307 232.88C666.689 230.18 652.816 231.79 640.114 229.4Z" fill="#4756DF"/>
<path d="M339.855 462.51H522.943L481.314 337.79C480.09 334.114 477.663 330.904 474.386 328.626C471.108 326.348 467.151 325.12 463.087 325.12H308.357C305.35 325.118 302.386 325.789 299.704 327.079C297.022 328.368 294.699 330.24 292.923 332.541C291.147 334.843 289.969 337.509 289.484 340.324C288.998 343.138 289.22 346.022 290.13 348.74L324.538 451.88C325.57 454.965 327.611 457.659 330.365 459.57C333.119 461.481 336.443 462.511 339.855 462.51Z" fill="#30242A"/>
<path d="M367.137 381.54C371.997 375.24 394.039 391.88 395.663 393.25C396.506 391.88 407.986 375.25 416.398 381.54C423.704 387 407.649 411.39 403.379 417.61C403.2 417.798 402.982 417.949 402.737 418.052C402.493 418.155 402.229 418.209 401.961 418.209C401.694 418.209 401.43 418.155 401.185 418.052C400.941 417.949 400.723 417.798 400.544 417.61C392.753 411.39 362.92 387 367.137 381.54Z" fill="#A15842"/>
<path d="M393.847 385.758C395.686 385.214 395.756 380.443 394.002 375.102C392.249 369.76 389.335 365.871 387.495 366.414C385.655 366.958 385.586 371.729 387.34 377.07C389.093 382.412 392.007 386.301 393.847 385.758Z" fill="#A15842"/>
<path d="M629.256 448.47C629.786 450.083 629.909 451.792 629.615 453.459C629.321 455.126 628.619 456.704 627.564 458.066C626.51 459.428 625.133 460.537 623.545 461.301C621.956 462.066 620.2 462.467 618.419 462.47H339.855C336.443 462.471 333.119 461.441 330.365 459.53C327.611 457.619 325.57 454.925 324.538 451.84L323.4 448.43L629.256 448.47Z" fill="#30242A"/>
<path d="M960.053 462.51H143.907V487.58H960.053V462.51Z" fill="#FFBE21"/>
<path d="M797.174 599.89L814.125 537H715.244C693.215 537.001 671.813 543.958 654.413 556.774C637.013 569.589 624.605 587.535 619.146 607.78L607.656 650.38H728.621C744.336 650.379 759.602 645.416 772.015 636.274C784.427 627.132 793.279 614.332 797.174 599.89Z" fill="#FFB7D5"/>
<path d="M609.996 633.89L606.085 649.57" stroke="#A15842" stroke-width="4" stroke-linecap="round" stroke-linejoin="round"/>
<path d="M294.22 360.83C281.918 366.66 275.772 376.38 275.772 383.19C275.772 393.13 286.441 395 286.441 395C286.441 395 278.482 406.87 292.323 412.44C292.323 412.44 292.323 424.66 305.215 424.66C305.215 424.66 303.508 434.19 316.959 435.09C330.41 435.99 344.251 429.33 345.421 425.02C346.76 419.93 343.144 415.67 333.383 414.32C333.383 414.32 346.56 408.48 344.472 401.11C342.385 393.74 333.478 393.91 333.478 393.91C333.478 393.91 342.006 389.06 337.452 381.91C332.898 374.76 324.19 377.24 324.19 377.24C324.19 377.24 326.467 372.24 322.483 368.43C317.739 363.93 297.341 369.61 297.341 369.61L294.22 360.83Z" fill="#EAA58A"/>
<path d="M305.31 425.13C316.411 422.606 327.181 418.916 337.42 414.13" stroke="#A15842" stroke-width="4" stroke-miterlimit="10" stroke-linecap="round"/>
<path d="M292.291 412.38C307.682 408.377 322.377 402.269 335.913 394.25" stroke="#A15842" stroke-width="4" stroke-miterlimit="10" stroke-linecap="round"/>
<path d="M285.386 396.42C299.649 392.417 313.124 386.225 325.276 378.09" stroke="#A15842" stroke-width="4" stroke-miterlimit="10" stroke-linecap="round"/>
<path d="M726.977 170.68C708.782 145.75 659.31 155.68 659.31 155.68C660.512 141.99 664.433 102.55 633.167 80.88C601.9 59.21 562.232 70.62 547.779 87.72C541.897 94.72 539.019 104.14 537.343 114.42C546.936 115.95 561.009 112.82 561.009 112.82C580.247 133.35 597.483 136.61 597.483 136.61C610.945 123.84 634.558 124.26 638.395 143.61C642.38 163.7 608.552 172.73 608.552 172.73C608.552 172.73 605.389 208.83 622.256 221.87C627.433 225.762 633.553 228.365 640.061 229.44C652.711 231.83 666.636 230.22 679.35 232.9C690.552 235.191 701.27 239.247 711.059 244.9C714.921 241.672 718.451 238.102 721.601 234.24C732.691 220.9 745.952 196.68 726.977 170.68Z" fill="#A15842"/>
<path d="M581.08 105.5C574.755 110.5 567.376 113.5 558.879 115.5" stroke="#EAA58B" stroke-width="4" stroke-miterlimit="10" stroke-linecap="round"/>
<path d="M574.323 210.08C579.232 208.527 583.967 206.517 588.459 204.08" stroke="#A15842" stroke-width="4" stroke-miterlimit="10" stroke-linecap="round"/>
<path d="M609.848 152.56L619.462 146.86" stroke="#A15842" stroke-width="4" stroke-miterlimit="10" stroke-linecap="round"/>
<path d="M554.684 179.33C556.676 180.5 564.171 181.41 567.144 175.98" stroke="#A15842" stroke-width="4" stroke-miterlimit="10" stroke-linecap="round"/>
<path d="M574.27 153.67C576.261 153.67 577.876 152.139 577.876 150.25C577.876 148.361 576.261 146.83 574.27 146.83C572.279 146.83 570.665 148.361 570.665 150.25C570.665 152.139 572.279 153.67 574.27 153.67Z" fill="#30242A"/>
<path d="M544.385 149.14C546.376 149.14 547.99 147.609 547.99 145.72C547.99 143.831 546.376 142.3 544.385 142.3C542.394 142.3 540.78 143.831 540.78 145.72C540.78 147.609 542.394 149.14 544.385 149.14Z" fill="#30242A"/>
<path d="M554.536 158.93C553.819 161.08 553.198 163.42 553.609 164.2C554.174 165.188 555.031 165.998 556.075 166.53" stroke="#A15842" stroke-width="4" stroke-miterlimit="10" stroke-linecap="round"/>
<path d="M614.371 186.07C621.346 186.07 627 180.706 627 174.09C627 167.474 621.346 162.11 614.371 162.11C607.396 162.11 601.742 167.474 601.742 174.09C601.742 180.706 607.396 186.07 614.371 186.07Z" fill="#F5EBDD"/>
<path d="M553.617 147.643C555.802 136.99 549.378 126.842 539.268 124.976C529.159 123.11 519.192 130.233 517.007 140.886C514.822 151.539 521.247 161.687 531.356 163.553C541.466 165.419 551.432 158.295 553.617 147.643Z" stroke="#30242A" stroke-width="4" stroke-miterlimit="10" stroke-linecap="round"/>
<path d="M599.421 152.971C601.606 142.318 595.181 132.17 585.072 130.304C574.962 128.438 564.996 135.561 562.811 146.214C560.626 156.866 567.05 167.015 577.16 168.88C587.269 170.746 597.236 163.623 599.421 152.971Z" stroke="#30242A" stroke-width="4" stroke-miterlimit="10" stroke-linecap="round"/>
<path d="M554.484 146.03L561.768 146.77" stroke="#30242A" stroke-width="4" stroke-miterlimit="10" stroke-linecap="round"/>
<path d="M509.197 336.15L519.401 364.32" stroke="#30242A" stroke-width="4" stroke-linecap="round" stroke-linejoin="round"/>
<path d="M563.107 400.33H536.278" stroke="#30242A" stroke-width="4" stroke-linecap="round" stroke-linejoin="round"/>
<path d="M584.253 328.13L592.708 367.24V403.34" stroke="#30242A" stroke-width="4" stroke-linecap="round" stroke-linejoin="round"/>
<path d="M528.024 238.51L544.079 272.97L525.051 270.97L592.708 367.24" stroke="#30242A" stroke-width="4" stroke-linecap="round" stroke-linejoin="round"/>
<path d="M684.452 234.41L657.202 270.97L682.575 268.96L589.535 347.18" stroke="#30242A" stroke-width="4" stroke-linecap="round" stroke-linejoin="round"/>
<path d="M417.632 207.17C429.084 207.17 438.367 198.363 438.367 187.5C438.367 176.637 429.084 167.83 417.632 167.83C406.18 167.83 396.896 176.637 396.896 187.5C396.896 198.363 406.18 207.17 417.632 207.17Z" fill="#FFB7D5"/>
<path d="M355.66 109.22L343.587 95.4112C341.729 93.2857 338.406 92.9916 336.165 94.7544L335.906 94.9587C333.665 96.7215 333.355 99.8736 335.213 101.999L347.286 115.808C349.144 117.934 352.467 118.228 354.708 116.465L354.967 116.261C357.208 114.498 357.518 111.346 355.66 109.22Z" fill="#4756DF"/>
<path d="M377.373 126L365.229 112.1L146.943 283.8C145.039 285.299 143.841 287.453 143.612 289.79C143.382 292.126 144.141 294.454 145.72 296.26L145.962 296.54C146.744 297.434 147.703 298.173 148.786 298.715C149.868 299.257 151.052 299.591 152.271 299.699C153.49 299.807 154.719 299.686 155.889 299.343C157.058 299 158.145 298.442 159.087 297.7L227.334 244V432.43H246.382V229L377.373 126Z" fill="#3EC1F3"/>
<path d="M342.196 130L348.278 137C350.396 139.429 352.007 142.219 353.022 145.22" stroke="#4756DF" stroke-width="4" stroke-miterlimit="10"/>
<path d="M236.853 248.17C250.575 248.17 261.699 237.617 261.699 224.6C261.699 211.583 250.575 201.03 236.853 201.03C223.13 201.03 212.006 211.583 212.006 224.6C212.006 237.617 223.13 248.17 236.853 248.17Z" fill="#4756DF"/>
<path d="M236.853 233.66C242.127 233.66 246.403 229.604 246.403 224.6C246.403 219.596 242.127 215.54 236.853 215.54C231.578 215.54 227.302 219.596 227.302 224.6C227.302 229.604 231.578 233.66 236.853 233.66Z" fill="#3EC1F3"/>
<path d="M434.656 176.33L402.873 201.25" stroke="#A15842" stroke-width="4" stroke-miterlimit="10"/>
<path d="M393.481 123.48C386.798 122.735 380.674 119.576 376.382 114.66L367.949 104.99C364.968 101.586 360.685 99.4431 356.04 99.0325C351.395 98.6219 346.768 99.9769 343.176 102.8C341.398 104.198 339.928 105.915 338.85 107.853C337.772 109.79 337.107 111.91 336.892 114.091C336.678 116.273 336.919 118.473 337.601 120.566C338.283 122.659 339.393 124.604 340.867 126.29L349.301 135.99C353.573 140.892 355.698 147.164 355.236 153.51L353.127 182.75C352.082 197.057 355.911 211.304 364.048 223.39L366.747 227.39L467.873 147.82L464.247 144.59C453.24 134.767 439.197 128.558 424.189 126.88L393.481 123.48Z" fill="#3EC1F3"/>
<path d="M246.382 432.43H227.334L199.177 439.71C193.905 441.075 189.252 444.046 185.936 448.166C182.619 452.286 180.823 457.326 180.824 462.51H292.882C292.882 457.325 291.084 452.284 287.766 448.163C284.447 444.043 279.792 441.073 274.518 439.71L246.382 432.43Z" fill="#3EC1F3"/>
<path d="M448.687 133.67L356.142 206.23" stroke="#4756DF" stroke-width="4" stroke-miterlimit="10" stroke-linecap="round"/>
<path d="M226.87 430.36H246.382" stroke="#4756DF" stroke-width="4" stroke-miterlimit="10" stroke-linecap="round"/>
<path d="M184.524 450.01H288.549" stroke="#4756DF" stroke-width="4" stroke-miterlimit="10" stroke-linecap="round"/>
<path d="M679.402 373.67C666.394 372.565 653.314 372.428 640.282 373.26C621.645 374.71 596.587 379.34 586.52 383.96C576.452 388.58 537.902 404.89 548.285 410.36C557.773 415.36 577.675 407.84 577.675 407.84C577.675 407.84 557.815 425.16 554.399 432.41C550.984 439.66 562.274 443.73 562.274 443.73C565.247 456.11 578.55 450.79 578.55 450.79C586.931 467.7 632.207 431.06 632.207 431.06C642.979 432.122 653.857 431.687 664.496 429.77C664.496 429.77 670.231 432.82 679.434 437.06L679.402 373.67Z" fill="#EAA58A"/>
<path d="M573.627 408.89C581.133 403 593.593 393.48 602.891 387.74" stroke="#A15842" stroke-width="4" stroke-miterlimit="10" stroke-linecap="round"/>
<path d="M613.137 401.81C591.538 415.08 571.856 432.81 562.116 442.09" stroke="#A15842" stroke-width="4" stroke-miterlimit="10" stroke-linecap="round"/>
<path d="M622.72 416.82C607.962 426.43 590.831 441 579.647 451" stroke="#A15842" stroke-width="4" stroke-miterlimit="10" stroke-linecap="round"/>
</svg>
