<svg width="456" height="869" viewBox="0 0 456 869" fill="none" xmlns="http://www.w3.org/2000/svg">
<rect width="456" height="869" fill="#1E1E1E"/>
<g clip-path="url(#clip0_0_1)">
<rect y="-155" width="1518" height="1024" rx="20" fill="white"/>
<path d="M504.048 45.092V67.772C504.048 70.04 504.606 71.786 505.722 73.01C506.838 74.234 508.476 74.846 510.636 74.846C512.796 74.846 514.452 74.234 515.604 73.01C516.756 71.786 517.332 70.04 517.332 67.772V45.092H526.566V67.718C526.566 71.102 525.846 73.964 524.406 76.304C522.966 78.644 521.022 80.408 518.574 81.596C516.162 82.784 513.462 83.378 510.474 83.378C507.486 83.378 504.804 82.802 502.428 81.65C500.088 80.462 498.234 78.698 496.866 76.358C495.498 73.982 494.814 71.102 494.814 67.718V45.092H504.048ZM551.411 52.544C554.939 52.544 557.747 53.696 559.835 56C561.959 58.268 563.021 61.4 563.021 65.396V83H553.841V66.638C553.841 64.622 553.319 63.056 552.275 61.94C551.231 60.824 549.827 60.266 548.063 60.266C546.299 60.266 544.895 60.824 543.851 61.94C542.807 63.056 542.285 64.622 542.285 66.638V83H533.051V52.868H542.285V56.864C543.221 55.532 544.481 54.488 546.065 53.732C547.649 52.94 549.431 52.544 551.411 52.544ZM574.081 49.736C572.461 49.736 571.129 49.268 570.085 48.332C569.077 47.36 568.573 46.172 568.573 44.768C568.573 43.328 569.077 42.14 570.085 41.204C571.129 40.232 572.461 39.746 574.081 39.746C575.665 39.746 576.961 40.232 577.969 41.204C579.013 42.14 579.535 43.328 579.535 44.768C579.535 46.172 579.013 47.36 577.969 48.332C576.961 49.268 575.665 49.736 574.081 49.736ZM578.671 52.868V83H569.437V52.868H578.671ZM598.917 74.36L605.451 52.868H615.279L604.587 83H593.193L582.501 52.868H592.383L598.917 74.36ZM647.57 67.448C647.57 68.312 647.516 69.212 647.408 70.148H626.51C626.654 72.02 627.248 73.46 628.292 74.468C629.372 75.44 630.686 75.926 632.234 75.926C634.538 75.926 636.14 74.954 637.04 73.01H646.868C646.364 74.99 645.446 76.772 644.114 78.356C642.818 79.94 641.18 81.182 639.2 82.082C637.22 82.982 635.006 83.432 632.558 83.432C629.606 83.432 626.978 82.802 624.674 81.542C622.37 80.282 620.57 78.482 619.274 76.142C617.978 73.802 617.33 71.066 617.33 67.934C617.33 64.802 617.96 62.066 619.22 59.726C620.516 57.386 622.316 55.586 624.62 54.326C626.924 53.066 629.57 52.436 632.558 52.436C635.474 52.436 638.066 53.048 640.334 54.272C642.602 55.496 644.366 57.242 645.626 59.51C646.922 61.778 647.57 64.424 647.57 67.448ZM638.12 65.018C638.12 63.434 637.58 62.174 636.5 61.238C635.42 60.302 634.07 59.834 632.45 59.834C630.902 59.834 629.588 60.284 628.508 61.184C627.464 62.084 626.816 63.362 626.564 65.018H638.12ZM661.675 57.89C662.755 56.234 664.105 54.938 665.725 54.002C667.345 53.03 669.145 52.544 671.125 52.544V62.318H668.587C666.283 62.318 664.555 62.822 663.403 63.83C662.251 64.802 661.675 66.53 661.675 69.014V83H652.441V52.868H661.675V57.89ZM687.797 83.432C685.169 83.432 682.829 82.982 680.777 82.082C678.725 81.182 677.105 79.958 675.917 78.41C674.729 76.826 674.063 75.062 673.919 73.118H683.045C683.153 74.162 683.639 75.008 684.503 75.656C685.367 76.304 686.429 76.628 687.689 76.628C688.841 76.628 689.723 76.412 690.335 75.98C690.983 75.512 691.307 74.918 691.307 74.198C691.307 73.334 690.857 72.704 689.957 72.308C689.057 71.876 687.599 71.408 685.583 70.904C683.423 70.4 681.623 69.878 680.183 69.338C678.743 68.762 677.501 67.88 676.457 66.692C675.413 65.468 674.891 63.83 674.891 61.778C674.891 60.05 675.359 58.484 676.295 57.08C677.267 55.64 678.671 54.506 680.507 53.678C682.379 52.85 684.593 52.436 687.149 52.436C690.929 52.436 693.899 53.372 696.059 55.244C698.255 57.116 699.515 59.6 699.839 62.696H691.307C691.163 61.652 690.695 60.824 689.903 60.212C689.147 59.6 688.139 59.294 686.879 59.294C685.799 59.294 684.971 59.51 684.395 59.942C683.819 60.338 683.531 60.896 683.531 61.616C683.531 62.48 683.981 63.128 684.881 63.56C685.817 63.992 687.257 64.424 689.201 64.856C691.433 65.432 693.251 66.008 694.655 66.584C696.059 67.124 697.283 68.024 698.327 69.284C699.407 70.508 699.965 72.164 700.001 74.252C700.001 76.016 699.497 77.6 698.489 79.004C697.517 80.372 696.095 81.452 694.223 82.244C692.387 83.036 690.245 83.432 687.797 83.432ZM710.294 49.736C708.674 49.736 707.342 49.268 706.298 48.332C705.29 47.36 704.786 46.172 704.786 44.768C704.786 43.328 705.29 42.14 706.298 41.204C707.342 40.232 708.674 39.746 710.294 39.746C711.878 39.746 713.174 40.232 714.182 41.204C715.226 42.14 715.748 43.328 715.748 44.768C715.748 46.172 715.226 47.36 714.182 48.332C713.174 49.268 711.878 49.736 710.294 49.736ZM714.884 52.868V83H705.65V52.868H714.884ZM738.37 75.17V83H733.672C730.324 83 727.714 82.19 725.842 80.57C723.97 78.914 723.034 76.232 723.034 72.524V60.536H719.362V52.868H723.034V45.524H732.268V52.868H738.316V60.536H732.268V72.632C732.268 73.532 732.484 74.18 732.916 74.576C733.348 74.972 734.068 75.17 735.076 75.17H738.37ZM774.293 52.868L755.393 97.31H745.457L752.369 81.974L740.111 52.868H750.425L757.391 71.714L764.303 52.868H774.293ZM816.346 45.092V52.49H806.302V83H797.068V52.49H787.024V45.092H816.346ZM849.384 67.448C849.384 68.312 849.33 69.212 849.222 70.148H828.324C828.468 72.02 829.062 73.46 830.106 74.468C831.186 75.44 832.5 75.926 834.048 75.926C836.352 75.926 837.954 74.954 838.854 73.01H848.682C848.178 74.99 847.26 76.772 845.928 78.356C844.632 79.94 842.994 81.182 841.014 82.082C839.034 82.982 836.82 83.432 834.372 83.432C831.42 83.432 828.792 82.802 826.488 81.542C824.184 80.282 822.384 78.482 821.088 76.142C819.792 73.802 819.144 71.066 819.144 67.934C819.144 64.802 819.774 62.066 821.034 59.726C822.33 57.386 824.13 55.586 826.434 54.326C828.738 53.066 831.384 52.436 834.372 52.436C837.288 52.436 839.88 53.048 842.148 54.272C844.416 55.496 846.18 57.242 847.44 59.51C848.736 61.778 849.384 64.424 849.384 67.448ZM839.934 65.018C839.934 63.434 839.394 62.174 838.314 61.238C837.234 60.302 835.884 59.834 834.264 59.834C832.716 59.834 831.402 60.284 830.322 61.184C829.278 62.084 828.63 63.362 828.378 65.018H839.934ZM852.42 67.88C852.42 64.784 852.996 62.066 854.148 59.726C855.336 57.386 856.938 55.586 858.954 54.326C860.97 53.066 863.22 52.436 865.704 52.436C867.828 52.436 869.682 52.868 871.266 53.732C872.886 54.596 874.128 55.73 874.992 57.134V52.868H884.226V83H874.992V78.734C874.092 80.138 872.832 81.272 871.212 82.136C869.628 83 867.774 83.432 865.65 83.432C863.202 83.432 860.97 82.802 858.954 81.542C856.938 80.246 855.336 78.428 854.148 76.088C852.996 73.712 852.42 70.976 852.42 67.88ZM874.992 67.934C874.992 65.63 874.344 63.812 873.048 62.48C871.788 61.148 870.24 60.482 868.404 60.482C866.568 60.482 865.002 61.148 863.706 62.48C862.446 63.776 861.816 65.576 861.816 67.88C861.816 70.184 862.446 72.02 863.706 73.388C865.002 74.72 866.568 75.386 868.404 75.386C870.24 75.386 871.788 74.72 873.048 73.388C874.344 72.056 874.992 70.238 874.992 67.934ZM889.07 67.934C889.07 64.802 889.7 62.066 890.96 59.726C892.256 57.386 894.038 55.586 896.306 54.326C898.61 53.066 901.238 52.436 904.19 52.436C907.97 52.436 911.12 53.426 913.64 55.406C916.196 57.386 917.87 60.176 918.662 63.776H908.834C908.006 61.472 906.404 60.32 904.028 60.32C902.336 60.32 900.986 60.986 899.978 62.318C898.97 63.614 898.466 65.486 898.466 67.934C898.466 70.382 898.97 72.272 899.978 73.604C900.986 74.9 902.336 75.548 904.028 75.548C906.404 75.548 908.006 74.396 908.834 72.092H918.662C917.87 75.62 916.196 78.392 913.64 80.408C911.084 82.424 907.934 83.432 904.19 83.432C901.238 83.432 898.61 82.802 896.306 81.542C894.038 80.282 892.256 78.482 890.96 76.142C889.7 73.802 889.07 71.066 889.07 67.934ZM942.123 52.544C945.579 52.544 948.351 53.696 950.439 56C952.527 58.268 953.571 61.4 953.571 65.396V83H944.391V66.638C944.391 64.622 943.869 63.056 942.825 61.94C941.781 60.824 940.377 60.266 938.613 60.266C936.849 60.266 935.445 60.824 934.401 61.94C933.357 63.056 932.835 64.622 932.835 66.638V83H923.601V43.04H932.835V56.918C933.771 55.586 935.049 54.524 936.669 53.732C938.289 52.94 940.107 52.544 942.123 52.544ZM988.392 67.448C988.392 68.312 988.338 69.212 988.23 70.148H967.332C967.476 72.02 968.07 73.46 969.114 74.468C970.194 75.44 971.508 75.926 973.056 75.926C975.36 75.926 976.962 74.954 977.862 73.01H987.69C987.186 74.99 986.268 76.772 984.936 78.356C983.64 79.94 982.002 81.182 980.022 82.082C978.042 82.982 975.828 83.432 973.38 83.432C970.428 83.432 967.8 82.802 965.496 81.542C963.192 80.282 961.392 78.482 960.096 76.142C958.8 73.802 958.152 71.066 958.152 67.934C958.152 64.802 958.782 62.066 960.042 59.726C961.338 57.386 963.138 55.586 965.442 54.326C967.746 53.066 970.392 52.436 973.38 52.436C976.296 52.436 978.888 53.048 981.156 54.272C983.424 55.496 985.188 57.242 986.448 59.51C987.744 61.778 988.392 64.424 988.392 67.448ZM978.942 65.018C978.942 63.434 978.402 62.174 977.322 61.238C976.242 60.302 974.892 59.834 973.272 59.834C971.724 59.834 970.41 60.284 969.33 61.184C968.286 62.084 967.638 63.362 967.386 65.018H978.942ZM1002.5 57.89C1003.58 56.234 1004.93 54.938 1006.55 54.002C1008.17 53.03 1009.97 52.544 1011.95 52.544V62.318H1009.41C1007.11 62.318 1005.38 62.822 1004.23 63.83C1003.07 64.802 1002.5 66.53 1002.5 69.014V83H993.263V52.868H1002.5V57.89ZM1028.62 83.432C1025.99 83.432 1023.65 82.982 1021.6 82.082C1019.55 81.182 1017.93 79.958 1016.74 78.41C1015.55 76.826 1014.89 75.062 1014.74 73.118H1023.87C1023.98 74.162 1024.46 75.008 1025.33 75.656C1026.19 76.304 1027.25 76.628 1028.51 76.628C1029.66 76.628 1030.55 76.412 1031.16 75.98C1031.81 75.512 1032.13 74.918 1032.13 74.198C1032.13 73.334 1031.68 72.704 1030.78 72.308C1029.88 71.876 1028.42 71.408 1026.41 70.904C1024.25 70.4 1022.45 69.878 1021.01 69.338C1019.57 68.762 1018.32 67.88 1017.28 66.692C1016.24 65.468 1015.71 63.83 1015.71 61.778C1015.71 60.05 1016.18 58.484 1017.12 57.08C1018.09 55.64 1019.49 54.506 1021.33 53.678C1023.2 52.85 1025.42 52.436 1027.97 52.436C1031.75 52.436 1034.72 53.372 1036.88 55.244C1039.08 57.116 1040.34 59.6 1040.66 62.696H1032.13C1031.99 61.652 1031.52 60.824 1030.73 60.212C1029.97 59.6 1028.96 59.294 1027.7 59.294C1026.62 59.294 1025.79 59.51 1025.22 59.942C1024.64 60.338 1024.35 60.896 1024.35 61.616C1024.35 62.48 1024.8 63.128 1025.7 63.56C1026.64 63.992 1028.08 64.424 1030.02 64.856C1032.26 65.432 1034.07 66.008 1035.48 66.584C1036.88 67.124 1038.11 68.024 1039.15 69.284C1040.23 70.508 1040.79 72.164 1040.82 74.252C1040.82 76.016 1040.32 77.6 1039.31 79.004C1038.34 80.372 1036.92 81.452 1035.05 82.244C1033.21 83.036 1031.07 83.432 1028.62 83.432ZM1048.58 45.092H1058.03L1051.98 59.564H1045.77L1048.58 45.092ZM420.304 144.304H406.156L403.888 151H394.222L407.938 113.092H418.63L432.346 151H422.572L420.304 144.304ZM417.928 137.176L413.23 123.298L408.586 137.176H417.928ZM434.684 135.88C434.684 132.784 435.26 130.066 436.412 127.726C437.6 125.386 439.202 123.586 441.218 122.326C443.234 121.066 445.484 120.436 447.968 120.436C449.948 120.436 451.748 120.85 453.368 121.678C455.024 122.506 456.32 123.622 457.256 125.026V111.04H466.49V151H457.256V146.68C456.392 148.12 455.15 149.272 453.53 150.136C451.946 151 450.092 151.432 447.968 151.432C445.484 151.432 443.234 150.802 441.218 149.542C439.202 148.246 437.6 146.428 436.412 144.088C435.26 141.712 434.684 138.976 434.684 135.88ZM457.256 135.934C457.256 133.63 456.608 131.812 455.312 130.48C454.052 129.148 452.504 128.482 450.668 128.482C448.832 128.482 447.266 129.148 445.97 130.48C444.71 131.776 444.08 133.576 444.08 135.88C444.08 138.184 444.71 140.02 445.97 141.388C447.266 142.72 448.832 143.386 450.668 143.386C452.504 143.386 454.052 142.72 455.312 141.388C456.608 140.056 457.256 138.238 457.256 135.934ZM511.619 120.544C515.363 120.544 518.333 121.678 520.529 123.946C522.761 126.214 523.877 129.364 523.877 133.396V151H514.697V134.638C514.697 132.694 514.175 131.2 513.131 130.156C512.123 129.076 510.719 128.536 508.919 128.536C507.119 128.536 505.697 129.076 504.653 130.156C503.645 131.2 503.141 132.694 503.141 134.638V151H493.961V134.638C493.961 132.694 493.439 131.2 492.395 130.156C491.387 129.076 489.983 128.536 488.183 128.536C486.383 128.536 484.961 129.076 483.917 130.156C482.909 131.2 482.405 132.694 482.405 134.638V151H473.171V120.868H482.405V124.648C483.341 123.388 484.565 122.398 486.077 121.678C487.589 120.922 489.299 120.544 491.207 120.544C493.475 120.544 495.491 121.03 497.255 122.002C499.055 122.974 500.459 124.36 501.467 126.16C502.511 124.504 503.933 123.154 505.733 122.11C507.533 121.066 509.495 120.544 511.619 120.544ZM534.979 117.736C533.359 117.736 532.027 117.268 530.983 116.332C529.975 115.36 529.471 114.172 529.471 112.768C529.471 111.328 529.975 110.14 530.983 109.204C532.027 108.232 533.359 107.746 534.979 107.746C536.563 107.746 537.859 108.232 538.867 109.204C539.911 110.14 540.433 111.328 540.433 112.768C540.433 114.172 539.911 115.36 538.867 116.332C537.859 117.268 536.563 117.736 534.979 117.736ZM539.569 120.868V151H530.335V120.868H539.569ZM564.621 120.544C568.149 120.544 570.957 121.696 573.045 124C575.169 126.268 576.231 129.4 576.231 133.396V151H567.051V134.638C567.051 132.622 566.529 131.056 565.485 129.94C564.441 128.824 563.037 128.266 561.273 128.266C559.509 128.266 558.105 128.824 557.061 129.94C556.017 131.056 555.495 132.622 555.495 134.638V151H546.261V120.868H555.495V124.864C556.431 123.532 557.691 122.488 559.275 121.732C560.859 120.94 562.641 120.544 564.621 120.544ZM587.291 117.736C585.671 117.736 584.339 117.268 583.295 116.332C582.287 115.36 581.783 114.172 581.783 112.768C581.783 111.328 582.287 110.14 583.295 109.204C584.339 108.232 585.671 107.746 587.291 107.746C588.875 107.746 590.171 108.232 591.179 109.204C592.223 110.14 592.745 111.328 592.745 112.768C592.745 114.172 592.223 115.36 591.179 116.332C590.171 117.268 588.875 117.736 587.291 117.736ZM591.881 120.868V151H582.647V120.868H591.881ZM610.831 151.432C608.203 151.432 605.863 150.982 603.811 150.082C601.759 149.182 600.139 147.958 598.951 146.41C597.763 144.826 597.097 143.062 596.953 141.118H606.079C606.187 142.162 606.673 143.008 607.537 143.656C608.401 144.304 609.463 144.628 610.723 144.628C611.875 144.628 612.757 144.412 613.369 143.98C614.017 143.512 614.341 142.918 614.341 142.198C614.341 141.334 613.891 140.704 612.991 140.308C612.091 139.876 610.633 139.408 608.617 138.904C606.457 138.4 604.657 137.878 603.217 137.338C601.777 136.762 600.535 135.88 599.491 134.692C598.447 133.468 597.925 131.83 597.925 129.778C597.925 128.05 598.393 126.484 599.329 125.08C600.301 123.64 601.705 122.506 603.541 121.678C605.413 120.85 607.627 120.436 610.183 120.436C613.963 120.436 616.933 121.372 619.093 123.244C621.289 125.116 622.549 127.6 622.873 130.696H614.341C614.197 129.652 613.729 128.824 612.937 128.212C612.181 127.6 611.173 127.294 609.913 127.294C608.833 127.294 608.005 127.51 607.429 127.942C606.853 128.338 606.565 128.896 606.565 129.616C606.565 130.48 607.015 131.128 607.915 131.56C608.851 131.992 610.291 132.424 612.235 132.856C614.467 133.432 616.285 134.008 617.689 134.584C619.093 135.124 620.317 136.024 621.361 137.284C622.441 138.508 622.999 140.164 623.035 142.252C623.035 144.016 622.531 145.6 621.523 147.004C620.551 148.372 619.129 149.452 617.257 150.244C615.421 151.036 613.279 151.432 610.831 151.432ZM645.478 143.17V151H640.78C637.432 151 634.822 150.19 632.95 148.57C631.078 146.914 630.142 144.232 630.142 140.524V128.536H626.47V120.868H630.142V113.524H639.376V120.868H645.424V128.536H639.376V140.632C639.376 141.532 639.592 142.18 640.024 142.576C640.456 142.972 641.176 143.17 642.184 143.17H645.478ZM659.856 125.89C660.936 124.234 662.286 122.938 663.906 122.002C665.526 121.03 667.326 120.544 669.306 120.544V130.318H666.768C664.464 130.318 662.736 130.822 661.584 131.83C660.432 132.802 659.856 134.53 659.856 137.014V151H650.622V120.868H659.856V125.89ZM671.884 135.88C671.884 132.784 672.46 130.066 673.612 127.726C674.8 125.386 676.402 123.586 678.418 122.326C680.434 121.066 682.684 120.436 685.168 120.436C687.292 120.436 689.146 120.868 690.73 121.732C692.35 122.596 693.592 123.73 694.456 125.134V120.868H703.69V151H694.456V146.734C693.556 148.138 692.296 149.272 690.676 150.136C689.092 151 687.238 151.432 685.114 151.432C682.666 151.432 680.434 150.802 678.418 149.542C676.402 148.246 674.8 146.428 673.612 144.088C672.46 141.712 671.884 138.976 671.884 135.88ZM694.456 135.934C694.456 133.63 693.808 131.812 692.512 130.48C691.252 129.148 689.704 128.482 687.868 128.482C686.032 128.482 684.466 129.148 683.17 130.48C681.91 131.776 681.28 133.576 681.28 135.88C681.28 138.184 681.91 140.02 683.17 141.388C684.466 142.72 686.032 143.386 687.868 143.386C689.704 143.386 691.252 142.72 692.512 141.388C693.808 140.056 694.456 138.238 694.456 135.934ZM727.164 143.17V151H722.466C719.118 151 716.508 150.19 714.636 148.57C712.764 146.914 711.828 144.232 711.828 140.524V128.536H708.156V120.868H711.828V113.524H721.062V120.868H727.11V128.536H721.062V140.632C721.062 141.532 721.278 142.18 721.71 142.576C722.142 142.972 722.862 143.17 723.87 143.17H727.164ZM736.951 117.736C735.331 117.736 733.999 117.268 732.955 116.332C731.947 115.36 731.443 114.172 731.443 112.768C731.443 111.328 731.947 110.14 732.955 109.204C733.999 108.232 735.331 107.746 736.951 107.746C738.535 107.746 739.831 108.232 740.839 109.204C741.883 110.14 742.405 111.328 742.405 112.768C742.405 114.172 741.883 115.36 740.839 116.332C739.831 117.268 738.535 117.736 736.951 117.736ZM741.541 120.868V151H732.307V120.868H741.541ZM761.787 142.36L768.321 120.868H778.149L767.457 151H756.063L745.371 120.868H755.253L761.787 142.36ZM810.44 135.448C810.44 136.312 810.386 137.212 810.278 138.148H789.38C789.524 140.02 790.118 141.46 791.162 142.468C792.242 143.44 793.556 143.926 795.104 143.926C797.408 143.926 799.01 142.954 799.91 141.01H809.738C809.234 142.99 808.316 144.772 806.984 146.356C805.688 147.94 804.05 149.182 802.07 150.082C800.09 150.982 797.876 151.432 795.428 151.432C792.476 151.432 789.848 150.802 787.544 149.542C785.24 148.282 783.44 146.482 782.144 144.142C780.848 141.802 780.2 139.066 780.2 135.934C780.2 132.802 780.83 130.066 782.09 127.726C783.386 125.386 785.186 123.586 787.49 122.326C789.794 121.066 792.44 120.436 795.428 120.436C798.344 120.436 800.936 121.048 803.204 122.272C805.472 123.496 807.236 125.242 808.496 127.51C809.792 129.778 810.44 132.424 810.44 135.448ZM800.99 133.018C800.99 131.434 800.45 130.174 799.37 129.238C798.29 128.302 796.94 127.834 795.32 127.834C793.772 127.834 792.458 128.284 791.378 129.184C790.334 130.084 789.686 131.362 789.434 133.018H800.99ZM850.353 144.304H836.205L833.937 151H824.271L837.987 113.092H848.679L862.395 151H852.621L850.353 144.304ZM847.977 137.176L843.279 123.298L838.635 137.176H847.977ZM896.323 120.868V151H887.089V146.896C886.153 148.228 884.875 149.308 883.255 150.136C881.671 150.928 879.907 151.324 877.963 151.324C875.659 151.324 873.625 150.82 871.861 149.812C870.097 148.768 868.729 147.274 867.757 145.33C866.785 143.386 866.299 141.1 866.299 138.472V120.868H875.479V137.23C875.479 139.246 876.001 140.812 877.045 141.928C878.089 143.044 879.493 143.602 881.257 143.602C883.057 143.602 884.479 143.044 885.523 141.928C886.567 140.812 887.089 139.246 887.089 137.23V120.868H896.323ZM919.75 143.17V151H915.052C911.704 151 909.094 150.19 907.222 148.57C905.35 146.914 904.414 144.232 904.414 140.524V128.536H900.742V120.868H904.414V113.524H913.648V120.868H919.696V128.536H913.648V140.632C913.648 141.532 913.864 142.18 914.296 142.576C914.728 142.972 915.448 143.17 916.456 143.17H919.75ZM938.609 151.432C935.657 151.432 932.993 150.802 930.617 149.542C928.277 148.282 926.423 146.482 925.055 144.142C923.723 141.802 923.057 139.066 923.057 135.934C923.057 132.838 923.741 130.12 925.109 127.78C926.477 125.404 928.349 123.586 930.725 122.326C933.101 121.066 935.765 120.436 938.717 120.436C941.669 120.436 944.333 121.066 946.709 122.326C949.085 123.586 950.957 125.404 952.325 127.78C953.693 130.12 954.377 132.838 954.377 135.934C954.377 139.03 953.675 141.766 952.271 144.142C950.903 146.482 949.013 148.282 946.601 149.542C944.225 150.802 941.561 151.432 938.609 151.432ZM938.609 143.44C940.373 143.44 941.867 142.792 943.091 141.496C944.351 140.2 944.981 138.346 944.981 135.934C944.981 133.522 944.369 131.668 943.145 130.372C941.957 129.076 940.481 128.428 938.717 128.428C936.917 128.428 935.423 129.076 934.235 130.372C933.047 131.632 932.453 133.486 932.453 135.934C932.453 138.346 933.029 140.2 934.181 141.496C935.369 142.792 936.845 143.44 938.609 143.44ZM997.724 120.544C1001.47 120.544 1004.44 121.678 1006.63 123.946C1008.87 126.214 1009.98 129.364 1009.98 133.396V151H1000.8V134.638C1000.8 132.694 1000.28 131.2 999.236 130.156C998.228 129.076 996.824 128.536 995.024 128.536C993.224 128.536 991.802 129.076 990.758 130.156C989.75 131.2 989.246 132.694 989.246 134.638V151H980.066V134.638C980.066 132.694 979.544 131.2 978.5 130.156C977.492 129.076 976.088 128.536 974.288 128.536C972.488 128.536 971.066 129.076 970.022 130.156C969.014 131.2 968.51 132.694 968.51 134.638V151H959.276V120.868H968.51V124.648C969.446 123.388 970.67 122.398 972.182 121.678C973.694 120.922 975.404 120.544 977.312 120.544C979.58 120.544 981.596 121.03 983.36 122.002C985.16 122.974 986.564 124.36 987.572 126.16C988.616 124.504 990.038 123.154 991.838 122.11C993.638 121.066 995.6 120.544 997.724 120.544ZM1014.6 135.88C1014.6 132.784 1015.18 130.066 1016.33 127.726C1017.52 125.386 1019.12 123.586 1021.14 122.326C1023.15 121.066 1025.4 120.436 1027.89 120.436C1030.01 120.436 1031.87 120.868 1033.45 121.732C1035.07 122.596 1036.31 123.73 1037.18 125.134V120.868H1046.41V151H1037.18V146.734C1036.28 148.138 1035.02 149.272 1033.4 150.136C1031.81 151 1029.96 151.432 1027.83 151.432C1025.39 151.432 1023.15 150.802 1021.14 149.542C1019.12 148.246 1017.52 146.428 1016.33 144.088C1015.18 141.712 1014.6 138.976 1014.6 135.88ZM1037.18 135.934C1037.18 133.63 1036.53 131.812 1035.23 130.48C1033.97 129.148 1032.42 128.482 1030.59 128.482C1028.75 128.482 1027.19 129.148 1025.89 130.48C1024.63 131.776 1024 133.576 1024 135.88C1024 138.184 1024.63 140.02 1025.89 141.388C1027.19 142.72 1028.75 143.386 1030.59 143.386C1032.42 143.386 1033.97 142.72 1035.23 141.388C1036.53 140.056 1037.18 138.238 1037.18 135.934ZM1069.88 143.17V151H1065.19C1061.84 151 1059.23 150.19 1057.36 148.57C1055.48 146.914 1054.55 144.232 1054.55 140.524V128.536H1050.88V120.868H1054.55V113.524H1063.78V120.868H1069.83V128.536H1063.78V140.632C1063.78 141.532 1064 142.18 1064.43 142.576C1064.86 142.972 1065.58 143.17 1066.59 143.17H1069.88ZM1079.67 117.736C1078.05 117.736 1076.72 117.268 1075.68 116.332C1074.67 115.36 1074.16 114.172 1074.16 112.768C1074.16 111.328 1074.67 110.14 1075.68 109.204C1076.72 108.232 1078.05 107.746 1079.67 107.746C1081.26 107.746 1082.55 108.232 1083.56 109.204C1084.6 110.14 1085.13 111.328 1085.13 112.768C1085.13 114.172 1084.6 115.36 1083.56 116.332C1082.55 117.268 1081.26 117.736 1079.67 117.736ZM1084.26 120.868V151H1075.03V120.868H1084.26ZM1104.67 151.432C1101.72 151.432 1099.05 150.802 1096.68 149.542C1094.34 148.282 1092.48 146.482 1091.12 144.142C1089.78 141.802 1089.12 139.066 1089.12 135.934C1089.12 132.838 1089.8 130.12 1091.17 127.78C1092.54 125.404 1094.41 123.586 1096.79 122.326C1099.16 121.066 1101.83 120.436 1104.78 120.436C1107.73 120.436 1110.39 121.066 1112.77 122.326C1115.15 123.586 1117.02 125.404 1118.39 127.78C1119.75 130.12 1120.44 132.838 1120.44 135.934C1120.44 139.03 1119.74 141.766 1118.33 144.142C1116.96 146.482 1115.07 148.282 1112.66 149.542C1110.29 150.802 1107.62 151.432 1104.67 151.432ZM1104.67 143.44C1106.43 143.44 1107.93 142.792 1109.15 141.496C1110.41 140.2 1111.04 138.346 1111.04 135.934C1111.04 133.522 1110.43 131.668 1109.21 130.372C1108.02 129.076 1106.54 128.428 1104.78 128.428C1102.98 128.428 1101.48 129.076 1100.3 130.372C1099.11 131.632 1098.51 133.486 1098.51 135.934C1098.51 138.346 1099.09 140.2 1100.24 141.496C1101.43 142.792 1102.91 143.44 1104.67 143.44ZM1143.7 120.544C1147.22 120.544 1150.03 121.696 1152.12 124C1154.24 126.268 1155.31 129.4 1155.31 133.396V151H1146.13V134.638C1146.13 132.622 1145.6 131.056 1144.56 129.94C1143.52 128.824 1142.11 128.266 1140.35 128.266C1138.58 128.266 1137.18 128.824 1136.14 129.94C1135.09 131.056 1134.57 132.622 1134.57 134.638V151H1125.34V120.868H1134.57V124.864C1135.51 123.532 1136.77 122.488 1138.35 121.732C1139.93 120.94 1141.72 120.544 1143.7 120.544ZM688.016 219.378C685.244 219.378 682.76 218.928 680.564 218.028C678.368 217.128 676.604 215.796 675.272 214.032C673.976 212.268 673.292 210.144 673.22 207.66H683.048C683.192 209.064 683.678 210.144 684.506 210.9C685.334 211.62 686.414 211.98 687.746 211.98C689.114 211.98 690.194 211.674 690.986 211.062C691.778 210.414 692.174 209.532 692.174 208.416C692.174 207.48 691.85 206.706 691.202 206.094C690.59 205.482 689.816 204.978 688.88 204.582C687.98 204.186 686.684 203.736 684.992 203.232C682.544 202.476 680.546 201.72 678.998 200.964C677.45 200.208 676.118 199.092 675.002 197.616C673.886 196.14 673.328 194.214 673.328 191.838C673.328 188.31 674.606 185.556 677.162 183.576C679.718 181.56 683.048 180.552 687.152 180.552C691.328 180.552 694.694 181.56 697.25 183.576C699.806 185.556 701.174 188.328 701.354 191.892H691.364C691.292 190.668 690.842 189.714 690.014 189.03C689.186 188.31 688.124 187.95 686.828 187.95C685.712 187.95 684.812 188.256 684.128 188.868C683.444 189.444 683.102 190.29 683.102 191.406C683.102 192.63 683.678 193.584 684.83 194.268C685.982 194.952 687.782 195.69 690.23 196.482C692.678 197.31 694.658 198.102 696.17 198.858C697.718 199.614 699.05 200.712 700.166 202.152C701.282 203.592 701.84 205.446 701.84 207.714C701.84 209.874 701.282 211.836 700.166 213.6C699.086 215.364 697.502 216.768 695.414 217.812C693.326 218.856 690.86 219.378 688.016 219.378ZM738.302 188.868L719.402 233.31H709.466L716.378 217.974L704.12 188.868H714.434L721.4 207.714L728.312 188.868H738.302ZM753.899 219.432C751.271 219.432 748.931 218.982 746.879 218.082C744.827 217.182 743.207 215.958 742.019 214.41C740.831 212.826 740.165 211.062 740.021 209.118H749.147C749.255 210.162 749.741 211.008 750.605 211.656C751.469 212.304 752.531 212.628 753.791 212.628C754.943 212.628 755.825 212.412 756.437 211.98C757.085 211.512 757.409 210.918 757.409 210.198C757.409 209.334 756.959 208.704 756.059 208.308C755.159 207.876 753.701 207.408 751.685 206.904C749.525 206.4 747.725 205.878 746.285 205.338C744.845 204.762 743.603 203.88 742.559 202.692C741.515 201.468 740.993 199.83 740.993 197.778C740.993 196.05 741.461 194.484 742.397 193.08C743.369 191.64 744.773 190.506 746.609 189.678C748.481 188.85 750.695 188.436 753.251 188.436C757.031 188.436 760.001 189.372 762.161 191.244C764.357 193.116 765.617 195.6 765.941 198.696H757.409C757.265 197.652 756.797 196.824 756.005 196.212C755.249 195.6 754.241 195.294 752.981 195.294C751.901 195.294 751.073 195.51 750.497 195.942C749.921 196.338 749.633 196.896 749.633 197.616C749.633 198.48 750.083 199.128 750.983 199.56C751.919 199.992 753.359 200.424 755.303 200.856C757.535 201.432 759.353 202.008 760.757 202.584C762.161 203.124 763.385 204.024 764.429 205.284C765.509 206.508 766.067 208.164 766.103 210.252C766.103 212.016 765.599 213.6 764.591 215.004C763.619 216.372 762.197 217.452 760.325 218.244C758.489 219.036 756.347 219.432 753.899 219.432ZM788.547 211.17V219H783.849C780.501 219 777.891 218.19 776.019 216.57C774.147 214.914 773.211 212.232 773.211 208.524V196.536H769.539V188.868H773.211V181.524H782.445V188.868H788.493V196.536H782.445V208.632C782.445 209.532 782.661 210.18 783.093 210.576C783.525 210.972 784.245 211.17 785.253 211.17H788.547ZM822.094 203.448C822.094 204.312 822.04 205.212 821.932 206.148H801.034C801.178 208.02 801.772 209.46 802.816 210.468C803.896 211.44 805.21 211.926 806.758 211.926C809.062 211.926 810.664 210.954 811.564 209.01H821.392C820.888 210.99 819.97 212.772 818.638 214.356C817.342 215.94 815.704 217.182 813.724 218.082C811.744 218.982 809.53 219.432 807.082 219.432C804.13 219.432 801.502 218.802 799.198 217.542C796.894 216.282 795.094 214.482 793.798 212.142C792.502 209.802 791.854 207.066 791.854 203.934C791.854 200.802 792.484 198.066 793.744 195.726C795.04 193.386 796.84 191.586 799.144 190.326C801.448 189.066 804.094 188.436 807.082 188.436C809.998 188.436 812.59 189.048 814.858 190.272C817.126 191.496 818.89 193.242 820.15 195.51C821.446 197.778 822.094 200.424 822.094 203.448ZM812.644 201.018C812.644 199.434 812.104 198.174 811.024 197.238C809.944 196.302 808.594 195.834 806.974 195.834C805.426 195.834 804.112 196.284 803.032 197.184C801.988 198.084 801.34 199.362 801.088 201.018H812.644ZM865.414 188.544C869.158 188.544 872.128 189.678 874.324 191.946C876.556 194.214 877.672 197.364 877.672 201.396V219H868.492V202.638C868.492 200.694 867.97 199.2 866.926 198.156C865.918 197.076 864.514 196.536 862.714 196.536C860.914 196.536 859.492 197.076 858.448 198.156C857.44 199.2 856.936 200.694 856.936 202.638V219H847.756V202.638C847.756 200.694 847.234 199.2 846.19 198.156C845.182 197.076 843.778 196.536 841.978 196.536C840.178 196.536 838.756 197.076 837.712 198.156C836.704 199.2 836.2 200.694 836.2 202.638V219H826.966V188.868H836.2V192.648C837.136 191.388 838.36 190.398 839.872 189.678C841.384 188.922 843.094 188.544 845.002 188.544C847.27 188.544 849.286 189.03 851.05 190.002C852.85 190.974 854.254 192.36 855.262 194.16C856.306 192.504 857.728 191.154 859.528 190.11C861.328 189.066 863.29 188.544 865.414 188.544Z" fill="#4743E0"/>
<path d="M-33.7861 28.2906H-21.896C23.0353 28.301 66.1225 45.24 97.8899 75.3824C129.657 105.525 147.503 146.402 147.503 189.025V495.663H-203.278V189.025C-203.278 167.913 -198.894 147.008 -190.375 127.503C-181.857 107.999 -169.372 90.2775 -153.632 75.3513C-137.893 60.4251 -119.207 48.5865 -98.644 40.5117C-78.0806 32.437 -56.0417 28.2842 -33.7861 28.2906V28.2906Z" fill="#FFB7D5"/>
<path d="M35.8012 311.08V500.437H-119.852V311.08H35.8012ZM39.9261 307.167H-123.977V504.35H39.9261V307.167Z" fill="#CA7358"/>
<path d="M39.9261 307.157H-123.977V347.92H39.9261V307.157Z" fill="#CA7358"/>
<path d="M164.467 149.436V500.437H40.8021V149.436H164.467ZM168.592 145.523H36.6772V504.35H168.592V145.523Z" fill="#CA7358"/>
<path d="M90.3015 193.398H91.4873C95.9672 193.398 100.264 195.086 103.431 198.091C106.599 201.096 108.379 205.172 108.379 209.421V245.538H73.3997V209.421C73.3997 207.316 73.8369 205.232 74.6864 203.287C75.5359 201.342 76.7811 199.575 78.3507 198.087C79.9203 196.599 81.7837 195.419 83.8342 194.615C85.8848 193.81 88.0824 193.396 90.3015 193.398V193.398Z" fill="#CA7358"/>
<path d="M69.4089 221.835H112.38" stroke="#FFB7D5" stroke-width="4" stroke-linecap="round" stroke-linejoin="round"/>
<path d="M90.3015 286.937H91.4873C95.9672 286.937 100.264 288.625 103.431 291.63C106.599 294.635 108.379 298.711 108.379 302.96V339.077H73.3997V302.96C73.3997 300.855 73.8369 298.771 74.6864 296.826C75.5359 294.881 76.7811 293.114 78.3507 291.626C79.9203 290.138 81.7837 288.958 83.8342 288.154C85.8848 287.349 88.0824 286.935 90.3015 286.937V286.937Z" fill="#F5EBDD"/>
<path d="M69.4089 315.374H112.38" stroke="#FFB7D5" stroke-width="4" stroke-linecap="round" stroke-linejoin="round"/>
<path d="M90.3015 380.476H91.4873C95.9672 380.476 100.264 382.164 103.431 385.169C106.599 388.174 108.379 392.249 108.379 396.499V432.616H73.3997V396.499C73.3997 392.249 75.1793 388.174 78.3471 385.169C81.5148 382.164 85.8112 380.476 90.2911 380.476H90.3015Z" fill="#F5EBDD"/>
<path d="M69.4089 408.913H112.38" stroke="#FFB7D5" stroke-width="4" stroke-linecap="round" stroke-linejoin="round"/>
<path d="M90.3015 474.015H91.4873C95.9672 474.015 100.264 475.703 103.431 478.708C106.599 481.713 108.379 485.789 108.379 490.038V523.22H73.3997V490.038C73.3997 487.933 73.8369 485.849 74.6864 483.904C75.5359 481.96 76.7811 480.193 78.3507 478.705C79.9203 477.217 81.7837 476.036 83.8342 475.232C85.8848 474.427 88.0824 474.014 90.3015 474.015V474.015Z" fill="#30242A"/>
<path d="M168.592 145.523H36.6772V161.165H168.592V145.523Z" fill="#CA7358"/>
<path d="M6.44205 384.897H-28.5371V427.558H6.44205V384.897Z" fill="#30242A"/>
<path d="M-32.5277 403.856H10.4435" stroke="#FFB7D5" stroke-width="4" stroke-linecap="round" stroke-linejoin="round"/>
<path d="M6.44205 461.943H-28.5371V504.604H6.44205V461.943Z" fill="#F5EBDD"/>
<path d="M-32.5277 480.902H10.4435" stroke="#FFB7D5" stroke-width="4" stroke-linecap="round" stroke-linejoin="round"/>
<path d="M192.475 495.82H-248.25V524.257H192.475V495.82Z" fill="#F5EBDD"/>
<path d="M-20.9265 0H-34.817C-144.395 0 -233.225 84.2654 -233.225 188.213V524.257H177.523V188.213C177.492 84.2654 88.6516 0 -20.9265 0ZM-42.8709 495.82H-203.278V258.812H-42.8709V495.82ZM-42.8709 230.375H-203.278V189.181C-203.276 148.036 -186.642 108.457 -156.801 78.5966C-126.96 48.7363 -86.1836 30.8682 -42.8709 28.6721V230.375ZM147.504 495.82H-12.8932V258.812H147.504V495.82ZM147.504 230.375H-12.8932V28.6721C30.4186 30.8682 71.1934 48.7367 101.033 78.5973C130.873 108.458 147.505 148.037 147.504 189.181V230.375Z" fill="#F5EBDD"/>
<path d="M319.976 551.726C319.982 552.773 319.758 553.809 319.316 554.768C316.222 561.45 303.002 562.438 289.854 556.969C278.84 552.401 271.354 544.751 271.034 538.461V621.885H320.007V551.726H319.976Z" fill="#FFBE21"/>
<path d="M301.146 532.797C287.997 527.329 274.798 528.317 271.683 534.998C271.182 536.095 270.96 537.288 271.034 538.481C271.353 544.771 278.84 552.421 289.854 556.989C303.002 562.457 316.201 561.469 319.316 554.788C319.757 553.829 319.982 552.792 319.976 551.746C320.007 545.377 312.427 537.473 301.146 532.797Z" fill="#A15842"/>
<path d="M357.523 579.244C357.203 585.534 349.716 593.184 338.703 597.762C325.544 603.221 312.355 602.242 309.23 595.551C308.794 594.594 308.569 593.562 308.57 592.519V592.519V621.866H357.533V579.244H357.523Z" fill="#FFBE21"/>
<path d="M356.873 575.761C353.779 569.08 340.559 568.092 327.401 573.56C316.129 578.246 308.55 586.14 308.57 592.519C308.569 593.562 308.794 594.594 309.23 595.551C312.324 602.242 325.544 603.22 338.703 597.762C349.716 593.184 357.203 585.534 357.523 579.244C357.597 578.051 357.374 576.858 356.873 575.761Z" fill="#A15842"/>
<path d="M310.004 621.905V593.467" stroke="#A15842" stroke-width="4" stroke-miterlimit="10" stroke-linecap="round"/>
<path d="M295.515 526.624V542.746" stroke="#30242A" stroke-width="4" stroke-linecap="round" stroke-linejoin="round"/>
<path d="M333.052 567.398V584.458" stroke="#30242A" stroke-width="4" stroke-linecap="round" stroke-linejoin="round"/>
<path d="M85.836 899C84.5859 899.001 83.3534 898.721 82.2399 898.182C81.1264 897.643 80.1637 896.861 79.4308 895.9C78.6979 894.939 78.2158 893.827 78.0242 892.656C77.8326 891.484 77.937 890.285 78.3286 889.159L103.078 817.611C103.601 816.111 104.608 814.806 105.958 813.88C107.308 812.955 108.93 812.456 110.596 812.456H127.941C129.319 812.455 130.673 812.796 131.869 813.445C133.065 814.094 134.061 815.029 134.759 816.156C135.456 817.284 135.831 818.565 135.845 819.872C135.859 821.179 135.513 822.467 134.84 823.608L92.7039 895.156C92.0224 896.318 91.0269 897.286 89.8198 897.962C88.6127 898.638 87.2376 898.996 85.836 899V899Z" fill="#30242A"/>
<path d="M417.396 899C418.646 899.001 419.878 898.721 420.992 898.182C422.105 897.643 423.068 896.861 423.801 895.9C424.534 894.939 425.016 893.827 425.207 892.656C425.399 891.484 425.295 890.285 424.903 889.159L400.154 817.611C399.632 816.113 398.625 814.808 397.278 813.883C395.93 812.958 394.31 812.458 392.646 812.456H375.291C373.914 812.458 372.562 812.801 371.367 813.451C370.173 814.1 369.178 815.035 368.481 816.161C367.785 817.288 367.41 818.567 367.394 819.873C367.378 821.179 367.722 822.466 368.392 823.608L410.528 895.156C411.211 896.316 412.207 897.284 413.414 897.959C414.62 898.635 415.995 898.994 417.396 899V899Z" fill="#30242A"/>
<path d="M455.664 621.905H48.9182V842.791H455.664V621.905Z" fill="#A15842"/>
<path d="M425.677 650.342H78.8965V814.354H425.677V650.342Z" fill="#FFB7D5"/>
<path d="M251.915 647.505V817.2" stroke="#A15842" stroke-width="4" stroke-miterlimit="10"/>
<path d="M292.783 742.287C298.569 742.287 303.26 737.837 303.26 732.348C303.26 726.859 298.569 722.409 292.783 722.409C286.997 722.409 282.306 726.859 282.306 732.348C282.306 737.837 286.997 742.287 292.783 742.287Z" fill="#30242A"/>
<path d="M211.79 742.287C217.576 742.287 222.267 737.837 222.267 732.348C222.267 726.859 217.576 722.409 211.79 722.409C206.003 722.409 201.312 726.859 201.312 732.348C201.312 737.837 206.003 742.287 211.79 742.287Z" fill="#30242A"/>
<path d="M-16.9152 852.28L-98.5883 887.418C-99.9712 888.335 -100.94 889.712 -101.303 891.275C-101.666 892.838 -101.396 894.473 -100.547 895.856C-99.6979 897.239 -98.3317 898.269 -96.7196 898.741C-95.1074 899.213 -93.3671 899.092 -91.844 898.404L32.0887 843.623C27.2316 830.905 14.7435 826.014 -14.8424 821.123L-16.1108 820.898C-18.5624 831.205 -18.8358 841.872 -16.9152 852.28Z" fill="#3EC1F3"/>
<path d="M205.458 423.968C205.458 423.968 197.353 441.264 176.089 441.264C154.825 441.264 146.679 423.968 146.679 423.968C146.679 423.968 86.8674 553.683 145.647 621.905H206.417C265.166 553.683 205.458 423.968 205.458 423.968Z" fill="#3EC1F3"/>
<path d="M176.037 441.264C197.301 441.264 205.407 423.968 205.407 423.968H146.627C146.627 423.968 154.763 441.264 176.037 441.264Z" fill="#30242A"/>
<path d="M230.971 539.449C197.91 540.007 158.785 551.335 128.673 591.296" stroke="#F5EBDD" stroke-width="4" stroke-linecap="round" stroke-linejoin="round"/>
<path d="M123.383 507.705C145.575 502.569 187.597 497.678 228.331 506.874" stroke="#F5EBDD" stroke-width="4" stroke-linecap="round" stroke-linejoin="round"/>
<path d="M228.145 572.748C213.357 572.915 186.019 588.811 189.03 620.848" stroke="#F5EBDD" stroke-width="4" stroke-linecap="round" stroke-linejoin="round"/>
<path d="M172.315 435.511C171.696 421.571 167.788 366.174 144.585 333.677" stroke="#30242A" stroke-width="4" stroke-miterlimit="10" stroke-linecap="round"/>
<path d="M167.479 392.914C170.445 388.144 154.721 374.132 132.358 361.616C109.995 349.1 89.4617 342.82 86.4953 347.59C83.529 352.359 99.2529 366.372 121.616 378.888C143.979 391.404 164.512 397.683 167.479 392.914Z" fill="#30242A"/>
<path d="M158.794 254.666C163.148 252.311 160.91 240.806 153.796 228.97C146.682 217.133 137.385 209.446 133.031 211.801C128.677 214.156 130.915 225.661 138.029 237.497C145.144 249.334 154.44 257.021 158.794 254.666Z" fill="#30242A"/>
<path d="M82.2064 304.848C84.5473 299.908 95.5607 299.546 108.946 303.332C100.696 289.333 98.1698 276.313 103.625 272.958C109.08 269.602 120.609 277.027 130.726 289.911C132.51 276.773 137.336 267.411 143.1 267.352C150.381 267.352 156.341 282.584 156.413 301.424C156.457 306.812 155.953 312.191 154.908 317.487C151.733 316.108 148.246 315.503 144.762 315.728C141.279 315.952 137.909 316.999 134.961 318.773C132.012 320.546 129.577 322.991 127.878 325.884C126.178 328.778 125.268 332.028 125.229 335.34C119.89 334.098 114.684 332.389 109.678 330.234C91.4977 322.515 79.2261 311.158 82.2064 304.848Z" fill="#4756DF"/>
<path d="M134.726 318.905C137.685 317.081 141.082 315.996 144.602 315.751C148.121 315.507 151.649 316.11 154.856 317.506C153.082 326.262 149.875 332.757 146.018 334.87C142.347 337.404 134.572 337.502 125.177 335.359C125.216 332.083 126.108 328.866 127.774 325.995C129.44 323.124 131.828 320.689 134.726 318.905V318.905Z" fill="#30242A"/>
<path d="M180.049 434.67C182.895 419.273 197.714 343.782 221.432 301.072" stroke="#30242A" stroke-width="4" stroke-miterlimit="10" stroke-linecap="round"/>
<path d="M301.488 405.692C303.194 400.696 280.411 389.22 250.601 380.059C220.791 370.898 195.242 367.521 193.535 372.517C191.829 377.513 214.612 388.989 244.423 398.15C274.233 407.311 299.782 410.688 301.488 405.692Z" fill="#30242A"/>
<path d="M216.966 234.895C222.659 234.405 228.392 243.337 231.476 256.259C240.262 242.564 251.007 234.092 256.772 236.959C262.536 239.825 261.361 252.992 254.482 267.675C267.435 262.716 278.438 262.09 281.294 266.805C284.883 272.811 273.797 285.225 256.545 294.518C251.624 297.194 246.445 299.415 241.076 301.151C240.782 297.854 239.626 294.678 237.712 291.913C235.798 289.147 233.186 286.878 230.114 285.311C227.042 283.744 223.607 282.929 220.119 282.939C216.631 282.95 213.201 283.786 210.14 285.372C208.667 280.345 207.683 275.201 207.201 270.004C205.293 251.241 209.717 235.521 216.966 234.895Z" fill="#4756DF"/>
<path d="M229.826 285.195C232.953 286.747 235.617 289.024 237.569 291.813C239.522 294.602 240.7 297.814 240.994 301.15C232.074 303.977 224.495 304.516 220.7 302.363C216.575 300.573 212.667 294.185 210.027 285.371C213.055 283.794 216.448 282.953 219.903 282.922C223.358 282.892 226.767 283.673 229.826 285.195Z" fill="#30242A"/>
<path d="M278.449 324.452V324.53C273.599 326.427 269.674 329.98 267.449 334.486C265.224 338.993 264.86 344.127 266.429 348.876C267.998 353.625 271.386 357.644 275.925 360.139C280.463 362.635 285.823 363.427 290.947 362.359V362.437C263.774 370.508 238.942 368.551 235.477 358.055C232.013 347.558 251.276 332.523 278.449 324.452Z" fill="#4756DF"/>
<path d="M271.983 357.35C274.366 356.445 276.3 354.718 277.398 352.516C278.496 350.315 278.676 347.801 277.903 345.479C277.129 343.157 275.459 341.197 273.228 339.994C270.996 338.79 268.367 338.431 265.867 338.989C266.553 335.782 268.061 332.784 270.259 330.262C272.457 327.74 275.277 325.772 278.469 324.53L290.968 362.359C287.613 363.062 284.127 362.973 280.817 362.1C277.507 361.227 274.473 359.596 271.983 357.35Z" fill="#FFB7D5"/>
<path d="M277.861 345.514C278.626 347.826 278.447 350.328 277.358 352.52C276.269 354.713 274.35 356.437 271.983 357.35C269.409 355.031 267.497 352.129 266.428 348.918C265.358 345.707 265.165 342.29 265.868 338.989C268.365 338.446 270.987 338.817 273.209 340.026C275.432 341.235 277.093 343.195 277.861 345.514V345.514Z" fill="#30242A"/>
</g>
<defs>
<clipPath id="clip0_0_1">
<rect y="-155" width="1518" height="1024" rx="20" fill="white"/>
</clipPath>
</defs>
</svg>
